<svg id="Layer_1" data-name="Layer 1" xmlns="http://www.w3.org/2000/svg" viewBox="0 0 841.89 1190.55"><title>outlier_webuse-13</title><g id="_群組_" data-name=" 群組 "><path id="_複合路徑_" data-name=" 複合路徑 " d="M802.45,981.89q30.08,24.37,30.08,74t-30.08,74q-30.08,24.37-72.42,24.37-41.63,0-72.16-24.37t-30.52-74q0-49.62,30.52-74T730,957.52Q772.37,957.52,802.45,981.89Zm-27.81,40.26q-15.69-11.83-44.61-11.83t-44.52,11.83q-15.6,11.83-15.61,33.9t15.61,34q15.6,12,44.49,11.95t44.63-12q15.69-11.92,15.69-34t-15.69-33.85Z"/><path id="_複合路徑_2" data-name=" 複合路徑 2" d="M633.53,868.1h116q16.42,0,24.72-3.87,14.66-6.85,14.66-26.88,0-25.65-20.84-35.14-11.3-4.92-29.84-4.92H633.53v-51H826V795.2H798.8q.88.7,5.3,3.52a35.37,35.37,0,0,1,7.77,6.69q10.59,11.8,14.48,22.8t3.88,25.8q0,42.61-30.72,57.4-17,8.28-50,8.27h-116Z"/><path id="_複合路徑_3" data-name=" 複合路徑 3" d="M671.14,713.87H635.29V687H581.61V637.24h53.68V606h35.84v31.25H772.84q11.83,0,14.74-3t2.91-18.36q0-2.29-.09-4.86t-.26-5h37.61l.88,23.84q1.23,35.67-12.36,48.74Q807.63,687,789.62,687H671.14Z"/><path id="_複合路徑_4" data-name=" 複合路徑 4" d="M826,519v50.32H565.72V519Z"/><path id="_複合路徑_5" data-name=" 複合路徑 5" d="M633.53,466V415H826v51Z"/><path id="_複合路徑_6" data-name=" 複合路徑 6" d="M637.42,237.55q9-20.14,28.47-33.26Q683,192.47,705.68,189q13.26-2,38.2-1.66V327.47q29-1.17,40.61-20.13,7.24-11.53,7.24-27.75,0-17.2-8.83-27.94a42.33,42.33,0,0,0-13.24-10.36V189.92q17.13,2,34.79,18.66,28.08,25.86,28.08,72.41,0,38.42-23.68,67.79t-77.06,29.37q-50,0-76.7-26.51T628.4,282.81Q628.4,257.69,637.42,237.55Zm43.47,75.28q11,10.67,29.79,13.41v-86.7q-20,1.37-30.41,13.41T669.9,282.79q0,19.38,11,30Z"/><path id="_複合路徑_7" data-name=" 複合路徑 7" d="M629,51.68q.09-1,.27-4.33h51.56q-.53,4.77-.71,8.48t-.18,6q0,30.37,19.78,40.79,11.12,5.83,34.26,5.83h92v50.68H633.53v-48h33.55q-19.24-11.65-26.31-20.31Q628.94,76.7,628.94,54.09,628.93,52.65,629,51.68Z"/></g></svg>