<svg id="圖層_1" data-name="圖層 1" xmlns="http://www.w3.org/2000/svg" viewBox="0 0 188.06 82.68"><defs><style>.cls-1{fill:#ff3000;}.cls-2{fill:#fff;}</style></defs><title>WebUse_title</title><path class="cls-1" d="M14.38,3.36V6.42H9.21V20.64H5.58V6.42H.39V3.36Z"/><path class="cls-1" d="M29.26,6.42H20.12v3.67h8.39v3H20.12v4.44h9.56v3.11H16.59V3.36H29.26Z"/><path class="cls-1" d="M42.62,3.74a5.71,5.71,0,0,1,2.94,2.19,7.68,7.68,0,0,1,1.23,2.79,13.36,13.36,0,0,1,.33,2.86,11.48,11.48,0,0,1-1.38,5.84,6.25,6.25,0,0,1-5.79,3.22H32.5V3.36h7.45A9.09,9.09,0,0,1,42.62,3.74ZM36,6.36V17.64h3.33a3.6,3.6,0,0,0,3.57-2.52,8.88,8.88,0,0,0,.55-3.29,8.09,8.09,0,0,0-.83-4q-.83-1.41-3.29-1.41Z"/><path class="cls-1" d="M48.29,20.64l4.36-6.47L48.47,7.89h4.09l2.13,3.7,2.08-3.7h4l-4.2,6.22,4.36,6.53H56.76l-2.2-3.84-2.22,3.84Z"/><path class="cls-2" d="M63.12,3.36H66.9l6.86,12v-12h3.36V20.64H73.51l-7-12.26V20.64H63.12Z"/><path class="cls-2" d="M93.06,3.36V6.42H87.89V20.64H84.26V6.42H79.07V3.36Z"/><path class="cls-2" d="M95.14,20.64V3.36h3.59V9.95h6.71V3.36H109V20.64h-3.59V12.93H98.73v7.71Z"/><path class="cls-2" d="M112.5,3.36h3.67V14a6,6,0,0,0,.42,2.6q.65,1.45,2.85,1.45t2.84-1.45a6,6,0,0,0,.42-2.6V3.36h3.67V14a8.91,8.91,0,0,1-.85,4.29q-1.59,2.81-6.07,2.81t-6.08-2.81A8.91,8.91,0,0,1,112.5,14Z"/><path class="cls-2" d="M136.21,17.3a9.44,9.44,0,0,1,3.38-3.6,24.75,24.75,0,0,0,3-2.37,3.5,3.5,0,0,0,1-2.44A2.7,2.7,0,0,0,143,7.1a2.44,2.44,0,0,0-3.79.42,5.64,5.64,0,0,0-.37,2.09h-3.25a8.19,8.19,0,0,1,.79-3.5,4.9,4.9,0,0,1,4.75-2.54,6,6,0,0,1,4.29,1.49A5.16,5.16,0,0,1,147,9a5.35,5.35,0,0,1-1.13,3.35,11.22,11.22,0,0,1-2.43,2.17l-1.34.95q-1.26.89-1.72,1.29a3.78,3.78,0,0,0-.78.93h7.42v2.94H135.42A8,8,0,0,1,136.21,17.3Z"/><path class="cls-2" d="M159.18,5.81a13.22,13.22,0,0,1,1.31,6.49,13.15,13.15,0,0,1-1.31,6.48q-1.31,2.27-4.55,2.27t-4.55-2.27a13.15,13.15,0,0,1-1.31-6.48,13.22,13.22,0,0,1,1.31-6.49,5.68,5.68,0,0,1,9.11,0Zm-6.52,11a1.93,1.93,0,0,0,2,1.55,1.91,1.91,0,0,0,2-1.55A16.58,16.58,0,0,0,157,12.3a16.4,16.4,0,0,0-.46-4.55,1.89,1.89,0,0,0-2-1.48,1.92,1.92,0,0,0-2,1.48,15.83,15.83,0,0,0-.48,4.55A16,16,0,0,0,152.66,16.79Z"/><path class="cls-2" d="M163,8.92V6.64a14.72,14.72,0,0,0,2.21-.21,3.11,3.11,0,0,0,1.64-.89,2.94,2.94,0,0,0,.65-1.22,2.82,2.82,0,0,0,.13-.68h2.79v17H167V8.92Z"/><path class="cls-2" d="M187.37,6.48a21.08,21.08,0,0,0-2.09,2.63A23.23,23.23,0,0,0,183,13a23.25,23.25,0,0,0-1.29,3.87,16,16,0,0,0-.58,3.75H177.7a20.41,20.41,0,0,1,3-9.5,22.43,22.43,0,0,1,3.08-4.27h-8.47l0-3h12Z"/><path class="cls-2" d="M1.23,39.41a5.44,5.44,0,0,1,2.28-2.19l1.69-1a7.9,7.9,0,0,0,1.59-1.13,2.46,2.46,0,0,0,.06-3.42A2.4,2.4,0,0,0,5.1,31a2.3,2.3,0,0,0-2.25,1.23,4.43,4.43,0,0,0-.37,1.83H.87a5.65,5.65,0,0,1,.61-2.68,3.81,3.81,0,0,1,3.63-1.83,3.93,3.93,0,0,1,3.16,1.17,3.91,3.91,0,0,1,1,2.6A3.54,3.54,0,0,1,8.2,36,10.41,10.41,0,0,1,6,37.47l-1.2.67A7.8,7.8,0,0,0,3.44,39a3.3,3.3,0,0,0-1.11,1.7H9.2v1.49H.56A7.34,7.34,0,0,1,1.23,39.41Z"/><path class="cls-2" d="M18.41,31.66a9,9,0,0,1,.84,4.26,10.26,10.26,0,0,1-.76,4.25,3.74,3.74,0,0,1-3.62,2.41,3.63,3.63,0,0,1-3.37-2,9,9,0,0,1-.92-4.41,10.9,10.9,0,0,1,.55-3.68,3.79,3.79,0,0,1,3.75-2.87A3.72,3.72,0,0,1,18.41,31.66ZM16.82,40A7.88,7.88,0,0,0,17.55,36,10,10,0,0,0,17,32.46,2,2,0,0,0,15,31.07a2.15,2.15,0,0,0-2,1.31,9.06,9.06,0,0,0-.65,3.87,9.49,9.49,0,0,0,.41,3.09,2.25,2.25,0,0,0,4.13.69Z"/><path class="cls-2" d="M21.74,33.32V32.11a6.42,6.42,0,0,0,2.39-.56,2.75,2.75,0,0,0,1-1.85h1.25V42.24H24.71V33.32Z"/><path class="cls-2" d="M39.45,29.86v1.38a14.7,14.7,0,0,0-1.61,2,20.76,20.76,0,0,0-1.78,3.15,21.5,21.5,0,0,0-1.16,3q-.25.87-.66,2.8H32.48a21.54,21.54,0,0,1,2.64-7.17,22.7,22.7,0,0,1,2.53-3.61h-7V29.86Z"/><path class="cls-2" d="M46.58,40.32h1.84v1.92H46.58Z"/><path class="cls-2" d="M57.27,39a2.19,2.19,0,0,0,1.26,1.87,3,3,0,0,0,1.3.26,2.44,2.44,0,0,0,2.08-.9,3.22,3.22,0,0,0,.68-2,2.6,2.6,0,0,0-.8-2,2.79,2.79,0,0,0-1.93-.72,2.91,2.91,0,0,0-1.4.32,3,3,0,0,0-1,.88l-1.37-.08,1-6.78h6.54v1.53H58.23l-.54,3.5a3.93,3.93,0,0,1,.83-.5,4.24,4.24,0,0,1,1.63-.29,4.16,4.16,0,0,1,2.94,1.12A3.69,3.69,0,0,1,64.29,38a4.86,4.86,0,0,1-1.1,3.15,4.27,4.27,0,0,1-3.52,1.36,4.49,4.49,0,0,1-2.72-.87A3.43,3.43,0,0,1,55.63,39Z"/><path class="cls-2" d="M71.6,40.32h1.84v1.92H71.6Z"/><path class="cls-2" d="M81.29,39.41a5.44,5.44,0,0,1,2.28-2.19l1.69-1a7.9,7.9,0,0,0,1.59-1.13,2.46,2.46,0,0,0,.06-3.42A2.4,2.4,0,0,0,85.16,31a2.3,2.3,0,0,0-2.25,1.23,4.43,4.43,0,0,0-.37,1.83H80.93a5.65,5.65,0,0,1,.61-2.68,3.81,3.81,0,0,1,3.63-1.83,3.73,3.73,0,0,1,4.16,3.77A3.54,3.54,0,0,1,88.26,36a10.41,10.41,0,0,1-2.21,1.51l-1.2.67A7.8,7.8,0,0,0,83.5,39a3.3,3.3,0,0,0-1.11,1.7h6.87v1.49H80.62A7.34,7.34,0,0,1,81.29,39.41Z"/><path class="cls-2" d="M98.47,31.66a9,9,0,0,1,.84,4.26,10.26,10.26,0,0,1-.76,4.25,3.74,3.74,0,0,1-3.62,2.41,3.63,3.63,0,0,1-3.37-2,9,9,0,0,1-.92-4.41,10.9,10.9,0,0,1,.55-3.68,3.79,3.79,0,0,1,3.75-2.87A3.72,3.72,0,0,1,98.47,31.66ZM96.88,40A7.88,7.88,0,0,0,97.61,36a10,10,0,0,0-.53-3.53A2,2,0,0,0,95,31.07a2.15,2.15,0,0,0-2,1.31,9.06,9.06,0,0,0-.65,3.87,9.49,9.49,0,0,0,.41,3.09,2.25,2.25,0,0,0,4.13.69Z"/><path class="cls-2" d="M1,59.71c0-5.49,4-9.11,8.66-9.11,4.18,0,6.82,2.81,6.82,6.88,0,3.58-2.3,5.42-4.23,5.42a1.94,1.94,0,0,1-2.16-1.53H10A3.4,3.4,0,0,1,7.6,62.74c-1.44,0-2.52-1.06-2.52-2.92,0-2.25,1.62-4.77,4-4.77a1.71,1.71,0,0,1,1.6,1h0l.25-.83h1.33l-.85,4.16c-.36,1.5,0,2.18,1,2.18,1.26,0,2.63-1.51,2.63-4,0-3.17-1.8-5.62-5.58-5.62-3.56,0-7,3-7,7.72a5.66,5.66,0,0,0,6,6.08,6.63,6.63,0,0,0,3.21-.86l.52,1.19a7.69,7.69,0,0,1-3.89,1C4.32,67.08,1,64.58,1,59.71Zm8.71.56.54-3.08a1.29,1.29,0,0,0-1.19-.76c-1.46,0-2.38,1.84-2.38,3.28,0,1.17.56,1.67,1.31,1.67C8.53,61.39,9.07,61.06,9.72,60.27Z"/><path class="cls-2" d="M32.26,49.43c-.18.27-.36.54-.58.81A21.28,21.28,0,0,0,39,54.83a4.63,4.63,0,0,0-1.17,1.53c-1-.47-1.87-.94-2.77-1.48v1.19h-9v-.9a22.43,22.43,0,0,1-2.59,1.37,7.69,7.69,0,0,0-1.22-1.49,18.57,18.57,0,0,0,8.52-6.37Zm-7.2,8.52H36.31v7.2H34.55v-.83h-7.8v.9H25.06Zm1.69,1.49v3.33h7.8V59.44Zm7.74-4.92a23.57,23.57,0,0,1-3.83-3.1,21,21,0,0,1-3.57,3.1Z"/><path class="cls-2" d="M48.93,63.85c-3,.34-6.09.65-8.3.86l-.13-1.46c1-.05,2.29-.16,3.73-.27V62H41.17V60.78h3.06v-.85h-3.4V58.71h3.4v-.86H41V54.22h3.22v-.79H41.94V51.29H40.41V50h1.53V48.73H43.4V50h3.12V48.73H48V50h1.4v1.28H48v2.14H45.72v.79h3.11v3.62H45.72v.86H49v1.22H45.72v.85h2.9V62h-2.9v.88l3.21-.25Zm-6.61-7.18h2V55.39h-2ZM43.4,52.3h3.12v-1H43.4Zm4.07,3.1H45.63v1.28h1.84Zm8.88-2.79s0,.54,0,.77c-.18,7.45-.32,10-.88,10.77a1.66,1.66,0,0,1-1.28.76,13.67,13.67,0,0,1-2.14,0,4.17,4.17,0,0,0-.47-1.53c.83.07,1.55.07,1.87.07a.65.65,0,0,0,.63-.29c.4-.5.58-2.81.72-9H52.87c-.16,4.83-.76,8.68-3,11.22a4.92,4.92,0,0,0-1.22-1.13c2.09-2.23,2.61-5.69,2.74-10.08H49.56V52.6h1.85c0-1.21,0-2.5,0-3.87h1.51c0,1.35,0,2.65,0,3.87Z"/><path class="cls-2" d="M61,56.62A20.13,20.13,0,0,0,58.19,55l.9-1.26a26.77,26.77,0,0,1,2.81,1.48Zm1.71,2.57c-.72,1.85-1.66,4-2.5,5.65l-1.49-1a49.29,49.29,0,0,0,2.68-5.64ZM62,51.9a21.17,21.17,0,0,0-2.77-1.69l1-1.22A23.32,23.32,0,0,1,63,50.57Zm5.74,10.73a18,18,0,0,1-4.39,2.54,10.15,10.15,0,0,0-1.26-1.22A14.47,14.47,0,0,0,66.19,62Zm3-.77a33.83,33.83,0,0,1,3.78,2.29l-1.31,1a28.49,28.49,0,0,0-3.8-2.45l1.21-.86h-7v-6.3h4.07V54.44H64.41V53.38H63.07V50.31h4.59c-.16-.45-.4-1-.59-1.39l1.69-.31a14.22,14.22,0,0,1,.77,1.69h4.72v3.06H72.81v1.06H69.36v1.12h4.21v6.3ZM64.62,51.7v1.37h8V51.7Zm.56,6.39h2.57V56.83H65.18Zm0,2.49h2.57V59.3H65.18Zm4.18-3.75v1.26H72V56.83ZM72,59.3H69.36v1.28H72Z"/><path class="cls-2" d="M91.34,58.08a.4.4,0,0,0,.27-.07c.07,0,.13-.14.14-.34s.05-.7.07-1.3a2.9,2.9,0,0,0,1,.49,9.48,9.48,0,0,1-.18,1.66,1,1,0,0,1-.47.56,1.43,1.43,0,0,1-.76.18h-.72a1.34,1.34,0,0,1-.94-.34c-.23-.23-.32-.52-.32-1.51v-3.1H88.15A7.93,7.93,0,0,1,87.88,56a10.58,10.58,0,0,1,1.42,1l-.81,1a8.43,8.43,0,0,0-1.08-.85A6.6,6.6,0,0,1,85,59.59c-.14-.16-.36-.38-.59-.59-2.75.22-5.58.41-7.58.5l-.09-1L80,58.33v-.76H77.54v-.9H80v-.88h1.3a2.29,2.29,0,0,1-.09-.76v-.27H79.87c-.29,1-1,1.57-2.72,1.89a2.62,2.62,0,0,0-.59-.81c1.31-.2,1.93-.5,2.18-1.08H76.86v-.92H80v-.63h-2.3v-.9H80v-.52h1.4v.52H83.7v.9H81.42v.63h3.13v.92H82.28v.29c0,.31,0,.41.27.41h.86a2.84,2.84,0,0,0,.77-.09c0,.27.05.56.09.83a3.06,3.06,0,0,1-.85.07H82.28a1,1,0,0,1-.86-.29v.68H84v.9H81.42v.68l3.1-.16v.31a5.54,5.54,0,0,0,1.75-2c-.52-.29-1.08-.58-1.6-.81l.74-.9c.4.16.86.36,1.28.58a4.75,4.75,0,0,0,.16-1H84.94V53.07h1.93V51.92h1.3v1.15h2.59v4.36c0,.32,0,.5.05.56s.11.09.2.09ZM76.55,61.53h16v1H88.37a17.05,17.05,0,0,1,3.53,2.16l-1.15.77c-.31-.27-.68-.56-1.13-.88C79.83,65,78.77,65,78,65.24c-.09-.23-.32-.85-.49-1.15a4.66,4.66,0,0,0,1.22-.41,18.51,18.51,0,0,0,2.07-1.13h-4.3ZM80.75,51h-4V49.83h4V48.71h1.62v1.12h1.94V51H82.37v.7H80.75Zm9.67,8.73v1H78.79v-1ZM88,63.6c-.41-.22-.85-.43-1.24-.61l.77-.45H83.11a26,26,0,0,1-2.25,1.31ZM86.67,51H84.89V49.83h1.78V48.71h1.64v1.12h4.14V51H88.31v.7H86.67Z"/><path class="cls-2" d="M96.93,55.55c0,2.83-.22,7-1.51,9.74a6.05,6.05,0,0,0-1.3-.92c1.21-2.54,1.3-6.19,1.3-8.8V50h6.66a6.27,6.27,0,0,0-.58-.88l1.44-.56a8.41,8.41,0,0,1,1,1.44h6.68V51.3H96.93Zm3.91,4.92c-.4.09-.85.16-1.33.23v.94h1.08v1H99.51v.9l1.17-.13,0,1c-1.33.16-2.63.32-3.76.43l-.14-1.12c.49,0,1-.07,1.6-.14v-1H97.27v-1h1.13v-.83c-.43,0-.83.05-1.22.05a3.52,3.52,0,0,0-.32-1,25.42,25.42,0,0,0,3.37-.47Zm1.53-7.15v12h-1.28V58.83c-1.37.13-2.68.22-3.84.31l-.11-1.21,1-.05V53.32h-.74v-1.1h5.74v1.1Zm-1.28,0H99.38v.83h1.71Zm0,1.73H99.38v.88h1.71Zm0,2.66v-.88H99.38v1Zm1.44,6.45a6.62,6.62,0,0,0,.81-2.72l1.08.32a7.28,7.28,0,0,1-.83,2.93Zm8.21-4H106.6A7.89,7.89,0,0,1,108,62.09l-1,.58a8.66,8.66,0,0,0-1.51-2.12l.7-.38H103V59h7.74Zm-3.3-8.41v1h3V53.9h-3v.85h2.85v3.51h-6.88V54.74H106V53.9H103.3V52.71H106v-1Zm-2.05,4h-.94v1.51h.94Zm2,8.34c.31,0,.38-.13.41-1.17a3.23,3.23,0,0,0,1.08.43c-.13,1.46-.47,1.84-1.33,1.84h-1.39c-1.17,0-1.44-.32-1.44-1.48V61.37H106v2.32c0,.32.05.38.41.38Zm-.13-8.34h-1v1.51h1Zm.94,1.51h1V55.73h-1Zm1.22,3.92a8.87,8.87,0,0,1,1.4,2.94l-1.17.45a9.42,9.42,0,0,0-1.31-3Z"/></svg>