<svg id="圖層_1" data-name="圖層 1" xmlns="http://www.w3.org/2000/svg" viewBox="0 0 2822.4 167.07"><defs><style>.cls-1,.cls-2{fill:none;stroke:#000;stroke-miterlimit:10;}.cls-1{stroke-width:19.28px;}.cls-2{stroke-width:22.65px;}</style></defs><title>outlier_visuals_path_only_RGB（網路用）-標語黑_hashtag</title><g id="SLOGAN"><path d="M551.24,323.8a167.19,167.19,0,0,1-28,37c4.56,13,9.79,20.78,14.87,20.78,3.55,0,5.57-8.11,6.41-28a51.42,51.42,0,0,0,16.55,11.48c-3.21,29.56-9.46,37-24.83,37-12.33,0-21.79-10.14-29.06-26.69a175.12,175.12,0,0,1-31.26,20.55,87.88,87.88,0,0,0-13.34-16.22,172.06,172.06,0,0,0,37.67-23.81,312.22,312.22,0,0,1-8.62-45.27H457.32v19.25c8.62-1.52,17.4-3.21,26-4.73l1.52,18.24L457.32,349v28.89c0,11-2.36,16.38-9.12,19.59-6.59,3.21-16.73,4.05-30.41,3.88-.84-5.57-4.22-14.69-7.09-20.27,9.45.51,19.26.34,22.29.17,3,0,4.06-.84,4.06-3.55V353.21c-10.81,2.19-21.28,4.39-30.23,6.08l-4.9-20.3c9.63-1.52,21.79-3.37,35.13-5.78V310.62H405.13V291.53h31.92V272.28c-9.12,1.52-18.41,2.7-27,3.71a76.54,76.54,0,0,0-5.77-16.89c23.64-3.21,49.83-8.61,67.06-14.19L484.86,262c-8.45,2.53-17.74,4.73-27.54,6.76v22.8h32.43c-1.35-15.2-1.83-30.91-2-46.32h21.12a417,417,0,0,0,1.69,46.28h45.94v19.13H512.55c1.36,10.14,3,19.93,4.9,28.55a140.54,140.54,0,0,0,16.05-23Zm-12.32-37.17c-4.4-7.77-14.87-19.76-24-27.87l15.2-10.3c9,7.77,20.1,18.92,25,26.86Z" transform="translate(-237.62 -242.21)"/><path d="M748.29,267v19.25H657.92a194,194,0,0,1-19.76,33.28v81.75H617.72V342.54a126.35,126.35,0,0,1-14.86,11.82,141.26,141.26,0,0,0-10-19.43c17.77-11.47,32-29.21,42.06-48.64H598.3V267h45.62c2.87-7.94,5.41-15.71,7.43-23.48l21.12,5.07c-1.86,6.25-4.06,12.33-6.42,18.41ZM707.75,378.69h40v18.58H646.61V378.69h40.88V340.21h-34.3V321.6h34.29v-28h20.26v28h33.45v18.61H707.75Z" transform="translate(-237.62 -242.21)"/><path d="M877.63,379.7c4.39.34,9,.51,13.51.51,9.45,0,41.89,0,53.88-.51-2.7,4.56-5.74,13.34-6.75,19.26H890.12c-30.91,0-51.85-4.39-66-24a76.12,76.12,0,0,1-23.65,26.86c-2.88-3.71-10.65-11.15-15.2-14,17.22-10.64,27.53-28.55,31.41-51.18l20.1,3c-1.18,5.41-2.54,10.47-3.88,15.37,5.23,11.48,13.51,17.73,24.32,21.11V333.21H791.31V315.52h149v17.69H877.63v12.67h52v17.4h-52Zm46.62-71.62H806.86V249.47H924.25Zm-20.44-44.59H826.44v8.62h77.37Zm0,21.79H826.44v8.79h77.37Z" transform="translate(-237.62 -242.21)"/><path d="M1027.73,244.57h19.93v78.72c0,27.53-8.28,61-49.16,80.57-3.21-4.9-9.63-11.31-14.36-15.2,17.06-6.59,27.7-17.57,34.29-29.22l-35.3,6.08-3.72-20.1c12-1.35,28.89-3.38,46.45-5.74a73.23,73.23,0,0,0,1.86-16.22v-.17h-40.2V305h40.2v-20.1H985.67V266.21h42.06Zm108.78,118.24h-48.65v38.85h-20.1V244.57h20.1v21.64h45.6v18.73h-45.6V305h41.89v18.25h-41.89v20.78h48.65Z" transform="translate(-237.62 -242.21)"/><path d="M1222.09,378.52c10.13,3,22.46,3.71,37.5,3.71,11.49,0,57.6,0,71.45-.67-2.7,3.88-5.41,11.65-6.42,16.55h-65c-31.75,0-52.7-3.21-66.22-21.62-2.36,10.13-6.07,19.09-11.82,26-2.54-4.22-7.6-10.64-11.65-13.68,9.42-11.6,11.11-31.6,11.62-51.84h16c-.16,6.25-.5,12.33-1,18.41a45.38,45.38,0,0,0,8.61,13.34V330.21h-31.24V315.69h75.7v14.52h-27.53v13.85h24.32v14.53h-24.32Zm20.1-72.46h-60.64V250.32h60.64Zm-18.58-42.4h-24.16v7.94h24.16Zm0,20.61h-24.16v8.28h24.16Zm60.64,72.8c-7.26,9.46-19.09,19.09-29.56,24.66a120.57,120.57,0,0,0-12.83-11.66c10-4.56,20.1-11.14,26-18.24ZM1275.8,274c1-2.87,1.86-6.08,2.87-9.12h-29.75v-14h77.37v14h-29.54l-4,9.12h28.71v76.68h-67.28V274Zm27,13.51h-30.72v7.73h30.75Zm0,20.77h-30.72V316h30.75Zm0,20.61h-30.72V337h30.75Zm2.53,22c9,5.91,19.43,14.86,24.66,21.28l-14.36,8.45a135.72,135.72,0,0,0-24.15-22.47Z" transform="translate(-237.62 -242.21)"/><path d="M1511.54,343.05s-.16,4.9-.34,7.1c-1.35,27.7-3.38,39.87-7.6,44.42-3.55,4.05-7.59,5.41-12.66,5.91-4.74.67-12.67.67-21.29.34a42.21,42.21,0,0,0-5.07-17.23,129,129,0,0,0,16.55.68c2.54,0,4.06-.17,5.58-1.69,2-2.19,3.21-8.61,4.39-23.65h-83.78c-1.69,1.35-3.38,2.7-5.07,3.88l12.83,4.9c-3,10.14-7.43,22.3-13.34,29.9l-16.22-7.1c5.07-6.42,9.62-16,12.5-24.83a148,148,0,0,1-21.46,11.65,124.19,124.19,0,0,0-11.64-15.53c16.22-5.74,31.75-14.86,41.89-26.52h-16.38V284.94c13.85-2.53,29.56-6.59,39.19-10.81l11.65,12.33a245.84,245.84,0,0,1-32.93,8.45v6.93h28V315h-28v6.76h68.91V315h-27.7V301.84h27.7v-6.63h-30.57V281.74h48.81v53.54h-66.57a81.47,81.47,0,0,1-5.57,7.77Zm4.56-87.66V290h-18.92v-17.4H1388.4V290h-18.24V255.38h60.64a56.55,56.55,0,0,0-3.22-7.43l20.45-5.74a104.57,104.57,0,0,1,6.59,13.17ZM1433,363.83c3.22,9.63,5.41,21.79,5.08,29.56l-15.89,2.2c.34-7.77-1.18-20.27-4-30.24Zm19.77-1.18c4.39,7.77,8.11,17.74,9.12,24.32L1447,391c-.84-6.76-4.06-16.89-7.94-25ZM1470,382.41a65.44,65.44,0,0,0-10.81-16.89l12.84-5.41c4.73,4.73,9.62,11.48,11.65,16.22Z" transform="translate(-237.62 -242.21)"/><path d="M1705.06,266.21c-15.55,16.55-37,34.46-58.11,47v65.2c0,11.49-2.7,16.89-11,19.93s-20.44,3.55-36.65,3.38c-1-5.91-4.9-14.86-8.11-20.27,12,.51,25.84.34,29.55.34s5.07-1,5.07-3.88V303c13.17-6.93,27.7-17.74,38.85-27.7H1567.2V255.55h117.22l4.4-1.18Z" transform="translate(-237.62 -242.21)"/><path d="M2206.71,353.86c-22.3,10-47.29,20.61-66.38,28.55L2133.58,361c6.41-2.19,14-4.9,22.46-8.28L2152.66,254l20.94-.84,3,91.38c8.45-3.55,17.06-7.1,25.5-10.47Zm69.93,47.46c-6.25-11-19.08-26.52-31.59-40.71-12.33,17.57-29.05,31.08-51.35,41-2.87-4.39-11.14-13.51-16-17.74,53.55-20.27,70.94-61.15,77.19-130.57l22.12,2c-3.55,34.63-9.63,62.84-20.6,85.81,14,14.53,29.73,31.58,37.5,43.41Zm-63.34-86.65c-4.22-11.65-15-29.39-25.17-41.89l18.24-9.12c11,12.33,21.62,28.89,26.69,40.54Z" transform="translate(-237.62 -242.21)"/><path d="M2399.38,267.55l14.36,4c-7.77,68.41-32.43,110-69.93,129.55-3.38-4.9-11.83-13.34-16.89-16.89a97.38,97.38,0,0,0,45.6-42.9c-5.57-7.1-13.85-15.88-21.79-24a113,113,0,0,1-8.45,12.85c-3.55-3.38-12.33-9.8-16.89-12.84,14.69-16.89,24.66-44.76,29.89-73.81l20.27,3.55c-1.52,7.26-3.21,14.19-5.07,21.12h25Zm-35.14,19.76c-1.52,4.39-3,8.44-4.74,12.5,6.76,6.59,15.21,14.36,21.79,21.45a185.73,185.73,0,0,0,8.45-34Zm104.68,59.12c-5.58-8.28-16.89-20.61-27.2-31.59v86.65h-21.28V243.73h21.28v56.08l7.44-5.41c11.65,11.49,28.71,28,36.82,38.34Z" transform="translate(-237.62 -242.21)"/><path d="M2672.78,269.74s0,6.76-.16,9.12c-2.2,75.5-4.06,102.36-11,111.31-4.73,6.25-9.45,8.11-16.22,9.29-6.41.84-16.55.67-26.51.33a47.36,47.36,0,0,0-6.57-19.58c10.81,1,20.77,1,25.17,1,3.37,0,5.23-.67,7.43-2.87,4.9-5.41,7.09-30.74,9-90.37h-36.2a145.62,145.62,0,0,1-14.87,26.69c-2.7-2.53-8.45-6.42-13-9.46v78.88h-45.1v12.33h-18.24V270.93h19.09a181.11,181.11,0,0,0,4.89-27.2l22,3c-2.87,8.44-5.91,16.89-8.78,24.15h26.17v27.41c9.8-14.19,17.91-34.63,22.8-54.39l19.09,4.39a198.46,198.46,0,0,1-6.59,21.46Zm-101.17,18.75h-26.86v27.36h26.86Zm0,77.87V333.21h-26.86v33.1Zm56.08-9.12c-4.73-10.14-15.2-26.69-23.48-39l15.71-9c8.45,11.66,19.6,27.7,24.84,37.5Z" transform="translate(-237.62 -242.21)"/><path d="M2805.32,290.52c-1.18,1.69-2.54,3.21-3.72,4.9,16.72,10.81,45.94,23.48,70.27,29.9-4.39,4-10.64,12.33-13.85,17.56a237.87,237.87,0,0,1-33.28-14.67v9.29H2757v-7a211.78,211.78,0,0,1-33.27,14.66c-2.54-4.56-8.45-12.84-12.51-16.38,31.93-9.63,61.48-26.52,76.35-46.11l11.31,4.9a110,110,0,0,0-14-13l1.52-1.35h-27.36c5.57,4.9,11.83,10.81,15,15.2L2759.36,301c-3.21-5.07-10.65-13-16.73-18.58l11.49-9.12h-10.64c-5.92,8.79-12.33,16.89-18.92,23.14a124.13,124.13,0,0,0-13.17-17.23c10.3-9,20.26-23,25.67-36.82l19.6,5.91c-1,2.54-2.2,5.07-3.38,7.6h36.32v14c6.93-7.43,12.33-17.56,15.71-27.36l20.44,5.24c-1,2.7-2,5.41-3.22,8.11h44.76v17.4h-33.44c5.41,4.56,11,9.8,13.85,13.85l-14.36,12.33c-3.21-4.9-10.47-12.84-16.55-18.24l9.63-7.94h-13.18a80.69,80.69,0,0,1-12,15.37Zm-64.86,56.08h100.67v54.56H2821V396.6h-61.31v5.07h-19.26Zm19.26,17.23v15.38H2821V363.83Zm52-42.9c-7.93-4.73-15.2-9.46-21.28-13.85a156.93,156.93,0,0,1-17.4,13.85Z" transform="translate(-237.62 -242.21)"/><path d="M3060,363.66h-39c13.17,6.59,29.22,15.88,38,23l-15.7,14c-9-8.11-27.88-19.77-42.57-27.36l11.49-9.63h-19.42v37.84h-20.1V363.66H2944.3l19.76,6.59c-9.79,11.49-26.35,22-40.7,28.38-3.88-3.88-12.17-10.13-16.89-13.34,14.36-4.73,29.39-12.83,37.16-21.62h-36.82V347.1h65.88V335.45h20.1V347.1H3060Zm-20.78-20.61c-12-4.9-28.71-9.79-48-14.53-18.92,7.77-44.08,11.32-77.37,13.17a54.73,54.73,0,0,0-6.91-16.54c19.43-.51,35.81-1.86,49.66-4.22-9.45-1.86-18.92-3.55-28.89-5.07a178.75,178.75,0,0,0,14-13.85h-33.61V286.29h47.46a174.83,174.83,0,0,0,10.65-14.69h-36.65v9.29H2911V255.05h60q-1.77-3.81-3.55-7.1l21.28-4.22a116.36,116.36,0,0,1,6.59,11.32h60.3v25.84h-19.42V271.6h-62l12.16,3.71c-2.7,3.55-5.41,7.26-8.61,11h32.6a93,93,0,0,0,4.06-10.3l19.55,3.87a67.19,67.19,0,0,1-2.36,6.42h26.52V302h-34.46a63.46,63.46,0,0,1-12.83,14.53c18.24,4.39,34.79,9.12,47.46,13.51Zm-76.18-41a50.36,50.36,0,0,1-4.22,4.22c9.29,1.52,18.74,3.38,27.69,5.24a57,57,0,0,0,13-9.46Z" transform="translate(-237.62 -242.21)"/><circle class="cls-1" cx="1584.69" cy="88.24" r="69.19"/><line class="cls-2" x1="1715.17" y1="19.98" x2="1851.69" y2="156.5"/><line class="cls-2" x1="1715.17" y1="156.5" x2="1851.69" y2="19.98"/></g><path d="M253.1,343.81H237.62v-17.1h17.46L258.14,302H241.76V284.77H260.3l4.5-34.56h15.3L276,284.77h22.68l4.5-34.56h15.3l-4,34.56h16V302H312.32l-3.06,24.66h17.1v17.1H307.28l-4.68,39.06H286.76l4.68-39.06h-22.5l-4.86,39.06H248.42Zm40.32-17.1L296.48,302H273.8l-3.06,24.66Z" transform="translate(-237.62 -242.21)"/></svg>