<svg xmlns="http://www.w3.org/2000/svg" viewBox="0 0 1849.52 1997.77"><defs><style>.cls-1,.cls-2,.cls-4{fill:none;stroke-miterlimit:10;}.cls-1{stroke:#e50012;stroke-width:3.93px;}.cls-2,.cls-4{stroke:#fff;}.cls-2{stroke-width:12.63px;stroke-dasharray:16.88 16.88;}.cls-3{fill:#e50012;}.cls-4{stroke-width:12.62px;stroke-dasharray:18.75 18.75;}.cls-5{fill:#fff;}</style></defs><title>WebUse_title</title><g id="圖層_2" data-name="圖層 2"><line class="cls-1" x1="924.76" y1="1073.01" x2="381.78" y2="410.15"/><line class="cls-1" x1="924.76" y1="1073.01" x2="445.75" y2="292.9"/><line class="cls-1" x1="924.76" y1="1073.01" x2="701.5" y2="272.12"/><circle class="cls-2" cx="924.76" cy="1073.01" r="918.43" transform="translate(-190.69 1946.11) rotate(-87.3)"/><circle class="cls-3" cx="924.76" cy="1073.01" r="23.33" transform="translate(-190.69 1946.11) rotate(-87.3)"/><circle class="cls-4" cx="445.75" cy="292.9" r="220.78" transform="translate(132.14 724.33) rotate(-87.3)"/><circle class="cls-5" cx="445.75" cy="292.9" r="17.28" transform="translate(132.14 724.33) rotate(-87.3)"/><circle class="cls-4" cx="381.78" cy="410.15" r="220.78" transform="translate(-45.93 772.14) rotate(-87.3)"/><circle class="cls-5" cx="381.78" cy="410.15" r="17.28" transform="translate(-45.93 772.14) rotate(-87.3)"/><circle class="cls-4" cx="701.5" cy="272.12" r="220.78" transform="translate(396.58 960) rotate(-87.3)"/><circle class="cls-5" cx="701.5" cy="272.12" r="17.28" transform="translate(396.58 960) rotate(-87.3)"/><circle class="cls-5" cx="753.22" cy="111.83" r="17.28" transform="translate(-5.85 172.26) rotate(-13)"/><circle class="cls-5" cx="531.34" cy="32.4" r="17.28" transform="translate(139 392.18) rotate(-46.01)"/><circle class="cls-5" cx="963.25" cy="105.35" r="17.28" transform="translate(218.45 725.21) rotate(-46.01)"/><circle class="cls-5" cx="335.75" cy="17.28" r="17.28" transform="translate(90.13 246.84) rotate(-46.01)"/><circle class="cls-5" cx="105.13" cy="339.56" r="17.28" transform="translate(-212.19 179.36) rotate(-46.01)"/><circle class="cls-5" cx="193.26" cy="116.09" r="17.28" transform="translate(-24.49 174.5) rotate(-46.01)"/><circle class="cls-5" cx="54.67" cy="559.12" r="17.28" transform="translate(-385.57 210.13) rotate(-46.01)"/><circle class="cls-5" cx="814.88" cy="238.83" r="17.28" transform="translate(-32.84 189.38) rotate(-13)"/></g></svg>