<svg id="Layer_1" data-name="Layer 1" xmlns="http://www.w3.org/2000/svg" viewBox="0 0 1190.55 841.89"><defs><style>.cls-1{fill:#fff;}.cls-2{fill:red;}</style></defs><title>outlier標準字_webuse</title><g id="_群組_" data-name="&lt;群組&gt;"><path id="_複合路徑_" data-name="&lt;複合路徑&gt;" class="cls-1" d="M214.17,785.13q-24.37,30.08-74,30.08t-74-30.08q-24.37-30.08-24.37-72.42,0-41.63,24.37-72.16t74-30.52q49.62,0,74,30.52t24.37,72.16Q238.54,755.05,214.17,785.13Zm-40.26-27.81q11.83-15.69,11.83-44.61t-11.83-44.52q-11.83-15.6-33.9-15.61t-34,15.61Q94.1,683.79,94.1,712.71T106,757.32Q117.94,773,140,773T173.91,757.32Z"/><path id="_複合路徑_2" data-name="&lt;複合路徑&gt;" class="cls-1" d="M328,616.21v116q0,16.42,3.87,24.72,6.85,14.66,26.88,14.66,25.65,0,35.14-20.84,4.92-11.3,4.92-29.84V616.21h51V808.67H400.89V781.48q-.7.88-3.52,5.3a35.37,35.37,0,0,1-6.69,7.77q-11.8,10.59-22.8,14.48t-25.8,3.88q-42.61,0-57.4-30.72-8.28-17-8.27-50v-116Z"/><path id="_複合路徑_3" data-name="&lt;複合路徑&gt;" class="cls-1" d="M482.19,653.82V618H509V564.29h49.79V618h31.25v35.84H558.82V755.53q0,11.83,3,14.74t18.36,2.91q2.29,0,4.86-.09t5-.26v37.61l-23.84.88q-35.67,1.23-48.74-12.36Q509,790.31,509,772.3V653.82Z"/><path id="_複合路徑_4" data-name="&lt;複合路徑&gt;" class="cls-1" d="M677,808.67H626.71V548.4H677Z"/><path id="_複合路徑_5" data-name="&lt;複合路徑&gt;" class="cls-1" d="M730.08,616.21h51V808.67h-51Z"/><path id="_複合路徑_6" data-name="&lt;複合路徑&gt;" class="cls-2" d="M781.11,470.79h-51V424.35h51Z"/><path id="_複合路徑_7" data-name="&lt;複合路徑&gt;" class="cls-1" d="M958.52,620.11q20.14,9,33.26,28.47,11.82,17.15,15.33,39.79,2,13.26,1.66,38.2H868.59q1.17,29,20.13,40.61,11.53,7.24,27.75,7.24,17.2,0,27.94-8.83a42.33,42.33,0,0,0,10.36-13.24h51.38q-2,17.13-18.66,34.79-25.86,28.08-72.41,28.08-38.42,0-67.79-23.68t-29.37-77.06q0-50,26.51-76.7t68.83-26.69Q938.38,611.09,958.52,620.11Zm-75.28,43.47q-10.67,11-13.41,29.79h86.7q-1.37-20-13.41-30.41t-29.85-10.38Q893.89,652.58,883.23,663.58Z"/><path id="_複合路徑_8" data-name="&lt;複合路徑&gt;" class="cls-1" d="M1144.39,611.7q1,.09,4.33.27v51.56q-4.77-.53-8.48-.71t-6-.18q-30.37,0-40.79,19.78-5.83,11.12-5.83,34.26v92h-50.68V616.21h48v33.55q11.65-19.24,20.31-26.31,14.12-11.83,36.73-11.83Q1143.41,611.62,1144.39,611.7Z"/></g></svg>