<svg id="圖層_1" data-name="圖層 1" xmlns="http://www.w3.org/2000/svg" viewBox="0 0 160.15 42.74"><defs><style>.cls-1{fill:#dc3121;}.cls-2{fill:#040000;}.cls-3{fill:red;}</style></defs><title>TEDxNTHU_WHITE_RGB</title><path class="cls-1" d="M7.53,34.26,6.1,32.13H7.46l.76,1.17L9,32.13H10.3l-1.43,2.1,1.6,2.39H9.11L8.21,35.2,7.3,36.62H6Z"/><path class="cls-2" d="M16.11,34H11.88V33h4.23Zm0,1.86H11.88v-.93h4.23Z"/><path class="cls-2" d="M19.36,31.43H18.17v-1h1.19Zm-1.19.7h1.19v4.49H18.17Z"/><path class="cls-2" d="M20.13,32.13h1.13v.63h0A1.54,1.54,0,0,1,22.61,32c1.27,0,1.58.74,1.58,1.85v2.76H23V34.08c0-.74-.21-1.1-.76-1.1s-.92.37-.92,1.29v2.35H20.13Z"/><path class="cls-2" d="M28,36h0a1.42,1.42,0,0,1-1.32.69c-1.31,0-1.94-1.16-1.94-2.41S25.39,32,26.67,32a1.5,1.5,0,0,1,1.29.67h0V30.42h1.19v6.2H28Zm-1-3.11c-.78,0-1,.7-1,1.43s.31,1.44,1,1.44,1-.71,1-1.45S27.76,32.94,27,32.94Z"/><path class="cls-2" d="M30.87,34.67c0,.78.4,1.14,1.06,1.14a1,1,0,0,0,.94-.58h1a2,2,0,0,1-2,1.51,2.16,2.16,0,0,1-2.21-2.36A2.22,2.22,0,0,1,31.89,32c1.48,0,2.19,1.29,2.1,2.67Zm1.94-.78c-.11-.62-.37-1-.95-1a1,1,0,0,0-1,1Z"/><path class="cls-2" d="M34.53,32.13h1.13v.57h0A1.43,1.43,0,0,1,37,32c1.36,0,2,1.14,2,2.42s-.64,2.32-1.9,2.32a1.52,1.52,0,0,1-1.3-.68h0V38.2H34.53Zm3.22,2.26c0-.71-.28-1.45-1-1.45s-1,.72-1,1.45.27,1.43,1,1.43S37.75,35.12,37.75,34.39Z"/><path class="cls-2" d="M40.47,34.67c0,.78.4,1.14,1.06,1.14a1,1,0,0,0,.94-.58h1a2,2,0,0,1-2,1.51,2.16,2.16,0,0,1-2.21-2.36A2.22,2.22,0,0,1,41.49,32c1.48,0,2.19,1.29,2.1,2.67Zm1.94-.78c-.11-.62-.37-1-.95-1a1,1,0,0,0-1,1Z"/><path class="cls-2" d="M44.13,32.13h1.13v.63h0A1.53,1.53,0,0,1,46.61,32c1.27,0,1.58.74,1.58,1.85v2.76H47V34.08c0-.74-.21-1.1-.76-1.1s-.92.37-.92,1.29v2.35H44.13Z"/><path class="cls-2" d="M52,36h0a1.42,1.42,0,0,1-1.32.69c-1.31,0-1.94-1.16-1.94-2.41S49.39,32,50.67,32a1.5,1.5,0,0,1,1.29.67h0V30.42h1.19v6.2H52Zm-1-3.11c-.78,0-1,.7-1,1.43s.31,1.44,1,1.44,1-.71,1-1.45S51.76,32.94,51,32.94Z"/><path class="cls-2" d="M54.87,34.67c0,.78.4,1.14,1.06,1.14a1,1,0,0,0,.94-.58h1a2,2,0,0,1-2,1.51,2.16,2.16,0,0,1-2.21-2.36A2.22,2.22,0,0,1,55.89,32c1.48,0,2.19,1.29,2.1,2.67Zm1.94-.78c-.11-.62-.37-1-.95-1a1,1,0,0,0-1,1Z"/><path class="cls-2" d="M58.53,32.13h1.13v.63h0A1.54,1.54,0,0,1,61,32c1.27,0,1.58.74,1.58,1.85v2.76H61.41V34.08c0-.74-.21-1.1-.76-1.1s-.92.37-.92,1.29v2.35H58.53Z"/><path class="cls-2" d="M64.84,32.13h.87V33h-.87v2.22c0,.42.1.52.5.52a1.83,1.83,0,0,0,.37,0v1a4.37,4.37,0,0,1-.7,0c-.73,0-1.37-.17-1.37-1.07V33h-.72v-.83h.72V30.78h1.19Z"/><path class="cls-2" d="M66.15,30.42h1.19v6.2H66.15Z"/><path class="cls-2" d="M70.25,37.18a1.36,1.36,0,0,1-1.49,1,7,7,0,0,1-.73,0v-1a5.46,5.46,0,0,0,.7,0,.58.58,0,0,0,.41-.84l-1.53-4.21h1.27l1,3.08h0l.95-3.08h1.23Z"/><path class="cls-2" d="M76.56,32a2.17,2.17,0,0,1,2.25,2.37,2.25,2.25,0,1,1-4.48,0A2.17,2.17,0,0,1,76.56,32Zm0,3.81c.81,0,1.06-.72,1.06-1.44s-.24-1.44-1.06-1.44-1,.72-1,1.44S75.76,35.81,76.56,35.81Z"/><path class="cls-2" d="M79.24,32.13h1.13V33h0a1.53,1.53,0,0,1,1.38-1A.88.88,0,0,1,82,32V33.2a2,2,0,0,0-.43,0c-.87,0-1.17.65-1.17,1.44v2H79.24Z"/><path class="cls-2" d="M86.51,36.33c0,.74-.25,2-2.25,2a1.72,1.72,0,0,1-1.91-1.44h1.18a.81.81,0,0,0,.89.62c.66,0,1-.47,1-1.11v-.59h0a1.45,1.45,0,0,1-1.3.7c-1.3,0-1.85-1-1.85-2.26A2,2,0,0,1,84.07,32a1.34,1.34,0,0,1,1.29.72h0v-.6h1.13Zm-1.13-2c0-.73-.24-1.38-1-1.38s-1,.61-1,1.28.23,1.35,1,1.35S85.37,35,85.37,34.32Z"/><path class="cls-2" d="M87.07,33.51c.07-1.16,1.06-1.5,2-1.5s1.9.2,1.9,1.28v2.34a2.4,2.4,0,0,0,.15,1H90a1.81,1.81,0,0,1-.08-.43,2,2,0,0,1-1.46.55,1.31,1.31,0,0,1-1.48-1.35c0-1,.74-1.26,1.48-1.36s1.41-.09,1.41-.59-.35-.61-.77-.61a.68.68,0,0,0-.79.68Zm2.75.91a2.3,2.3,0,0,1-1,.26c-.37.08-.7.21-.7.66s.34.57.73.57a.91.91,0,0,0,1-1Z"/><path class="cls-2" d="M91.77,32.13H92.9v.63h0A1.54,1.54,0,0,1,94.25,32c1.26,0,1.58.74,1.58,1.85v2.76H94.64V34.08c0-.74-.21-1.1-.76-1.1s-.92.37-.92,1.29v2.35H91.77Z"/><path class="cls-2" d="M97.63,31.43H96.44v-1h1.19Zm-1.19.7h1.19v4.49H96.44Z"/><path class="cls-2" d="M98.13,35.69l2.26-2.63H98.3v-.93H102v.93L99.7,35.69h2.41v.93h-4Z"/><path class="cls-2" d="M103.56,34.67c0,.78.4,1.14,1.07,1.14a1,1,0,0,0,.94-.58h1a2,2,0,0,1-2,1.51,2.16,2.16,0,0,1-2.21-2.36A2.22,2.22,0,0,1,104.59,32c1.48,0,2.19,1.29,2.11,2.67Zm1.94-.78c-.11-.62-.37-1-.95-1a1,1,0,0,0-1,1Z"/><path class="cls-2" d="M110.32,36h0a1.42,1.42,0,0,1-1.31.69c-1.31,0-1.95-1.16-1.95-2.41S107.69,32,109,32a1.5,1.5,0,0,1,1.29.67h0V30.42h1.19v6.2h-1.13Zm-1-3.11c-.78,0-1,.7-1,1.43s.31,1.44,1,1.44,1-.71,1-1.45S110.05,32.94,109.28,32.94Z"/><path class="cls-2" d="M115.8,31.56H114V30.42h4.9v1.15h-1.79v5.06H115.8Z"/><path class="cls-2" d="M119.43,30.42h4.47v1.15h-3.16v1.33h2.9V34h-2.9v1.52H124v1.15h-4.54Z"/><path class="cls-2" d="M124.52,30.42h2.58c1.55,0,2.71,1,2.71,3.07,0,1.8-.89,3.14-2.71,3.14h-2.58Zm1.31,5.06H127c.76,0,1.49-.49,1.49-1.86s-.42-2.05-1.73-2.05h-.94Z"/><path class="cls-2" d="M133.58,34.67c0,.78.4,1.14,1.06,1.14a1,1,0,0,0,.94-.58h1a2,2,0,0,1-2,1.51,2.16,2.16,0,0,1-2.21-2.36A2.22,2.22,0,0,1,134.61,32c1.48,0,2.19,1.29,2.1,2.67Zm1.94-.78c-.11-.62-.37-1-.95-1a1,1,0,0,0-1,1Z"/><path class="cls-2" d="M139.48,36.62h-1.32l-1.48-4.49h1.25l.91,3.07h0l.91-3.07h1.18Z"/><path class="cls-2" d="M142.08,34.67c0,.78.4,1.14,1.06,1.14a1,1,0,0,0,.94-.58h1a2,2,0,0,1-2,1.51,2.16,2.16,0,0,1-2.21-2.36A2.22,2.22,0,0,1,143.11,32c1.47,0,2.19,1.29,2.1,2.67Zm1.94-.78c-.11-.62-.37-1-.95-1a1,1,0,0,0-1,1Z"/><path class="cls-2" d="M145.75,32.13h1.13v.63h0a1.53,1.53,0,0,1,1.32-.75c1.27,0,1.59.74,1.59,1.85v2.76h-1.19V34.08c0-.74-.21-1.1-.76-1.1s-.92.37-.92,1.29v2.35h-1.19Z"/><path class="cls-2" d="M152.06,32.13h.87V33h-.87v2.22c0,.42.1.52.5.52a1.83,1.83,0,0,0,.37,0v1a4.36,4.36,0,0,1-.7,0c-.73,0-1.37-.17-1.37-1.07V33h-.72v-.83h.72V30.78h1.19Z"/><path class="cls-3" d="M11.12,9.89H5.53V4.6H22.84V9.89H17.25V25.25H11.12Z"/><path class="cls-3" d="M23.79,4.6h16.8V9.89H29.93v2.57H40.59v4.92H29.93V20H40.59v5.3H23.79Z"/><path class="cls-3" d="M41.62,4.6H51.7c6.64,0,9,5.09,9,10.3,0,6.34-3.24,10.36-10.19,10.36H41.62ZM47.76,20h2.4c3.83,0,4.39-3.21,4.39-5.15,0-1.3-.39-4.92-4.83-4.92h-2Z"/><path class="cls-3" d="M69.51,17.29l-1.87-3.22-1.83,3.22h-4.5l4.27-6.51L61.47,4.56H66l1.67,3.08,1.71-3.08h4.5l-4.11,6.23L74,17.29Z"/><path class="cls-2" d="M79.75,25.2V4.6h2.8L88.92,15a58.88,58.88,0,0,1,3.57,6.69l.06,0c-.24-2.75-.29-5.26-.29-8.47V4.6h2.42V25.2H92.08L85.77,14.74A66.25,66.25,0,0,1,82,7.87L82,7.9c.15,2.6.21,5.07.21,8.5v8.8Z"/><path class="cls-2" d="M103.94,6.86h-6V4.6h14.72V6.86h-6.08V25.2h-2.6Z"/><path class="cls-2" d="M118.39,4.6v8.62H128V4.6h2.59V25.2H128V15.54h-9.62V25.2h-2.57V4.6Z"/><path class="cls-2" d="M136.63,4.6v12.2c0,4.62,2,6.57,4.63,6.57,3,0,4.84-2,4.84-6.57V4.6h2.6v12c0,6.33-3.22,8.93-7.52,8.93-4.07,0-7.14-2.42-7.14-8.8V4.6Z"/></svg>