<svg id="圖層_1" data-name="圖層 1" xmlns="http://www.w3.org/2000/svg" viewBox="0 0 216.43 1828.84"><defs><style>.cls-1{fill:#fff;}.cls-2{fill:#231815;}</style></defs><title>WebUse_title</title><path d="M71,95q-8.71-7.1-8.71-21.55T71,51.93q8.71-7.1,21-7.1a32.37,32.37,0,0,1,20.9,7.1q8.84,7.1,8.84,21.55T112.85,95a32.37,32.37,0,0,1-20.9,7.1Q79.69,102.12,71,95ZM79,83.3Q83.58,86.74,92,86.74t12.89-3.45q4.52-3.45,4.52-9.87t-4.52-9.9Q100.33,60.05,92,60.05T79,63.52q-4.54,3.47-4.54,9.9T79,83.3Z"/><path d="M119.91,127.22H86.3a17.58,17.58,0,0,0-7.16,1.13q-4.25,2-4.24,7.83,0,7.47,6,10.23a21.85,21.85,0,0,0,8.64,1.43h30.33V162.7H64.16V148.45H72q-.26-.21-1.53-1a10.22,10.22,0,0,1-2.25-1.95,20.34,20.34,0,0,1-4.19-6.64,22.7,22.7,0,0,1-1.13-7.51q0-12.41,8.9-16.72,4.91-2.41,14.47-2.41h33.6Z"/><path d="M109,171.19h10.38V179h15.55v14.5H119.39v9.1H109v-9.1H79.55q-3.43,0-4.27.87t-.84,5.35q0,.67,0,1.41t.08,1.47H63.65l-.26-6.94Q63,185.28,67,181.47,69.48,179,74.7,179H109Z"/><path d="M64.16,227V212.33h75.38V227Z"/><rect class="cls-1" x="64.16" y="300.01" width="55.75" height="14.86"/><rect class="cls-1" x="139.3" y="299.76" width="14.86" height="15.38"/><rect class="cls-2" x="139.3" y="387.54" width="14.86" height="15.38"/><rect class="cls-1" x="139.3" y="446.07" width="14.86" height="15.38"/><rect class="cls-1" x="139.3" y="680.17" width="14.86" height="15.38"/><rect class="cls-2" x="139.3" y="709.43" width="14.86" height="15.38"/><rect class="cls-2" x="139.3" y="767.96" width="14.86" height="15.38"/><rect class="cls-2" x="139.3" y="797.22" width="14.86" height="15.38"/><rect class="cls-1" x="139.3" y="1089.84" width="14.86" height="15.38"/><rect class="cls-2" x="139.3" y="1031.32" width="14.86" height="15.38"/><rect class="cls-1" x="139.3" y="1411.73" width="14.86" height="15.38"/><rect class="cls-2" x="139.3" y="1440.99" width="14.86" height="15.38"/><rect class="cls-2" x="139.3" y="1499.52" width="14.86" height="15.38"/><rect class="cls-2" x="139.3" y="1528.77" width="14.86" height="15.38"/><rect class="cls-2" x="64.16" y="329.28" width="55.75" height="14.86"/><rect class="cls-2" x="64.16" y="358.54" width="55.75" height="14.86"/><rect class="cls-2" x="64.16" y="387.8" width="55.75" height="14.86"/><rect class="cls-2" x="64.16" y="270.75" width="55.75" height="14.86"/><rect class="cls-2" x="64.16" y="329.28" width="55.75" height="14.86"/><rect class="cls-2" x="64.16" y="270.75" width="55.75" height="14.86"/><rect class="cls-2" x="64.16" y="241.49" width="55.75" height="14.86"/><rect class="cls-2" x="64.16" y="417.06" width="55.75" height="14.86"/><rect class="cls-1" x="64.16" y="446.32" width="55.75" height="14.86"/><rect class="cls-1" x="64.16" y="475.59" width="55.75" height="14.86"/><rect class="cls-1" x="64.16" y="504.85" width="55.75" height="14.86"/><rect class="cls-1" x="64.16" y="534.11" width="55.75" height="14.86"/><rect class="cls-1" x="64.16" y="563.37" width="55.75" height="14.86"/><rect class="cls-1" x="64.16" y="592.64" width="55.75" height="14.86"/><rect class="cls-1" x="64.16" y="621.9" width="55.75" height="14.86"/><rect class="cls-1" x="64.16" y="651.16" width="55.75" height="14.86"/><rect class="cls-1" x="64.16" y="680.42" width="55.75" height="14.86"/><rect class="cls-2" x="64.16" y="709.69" width="55.75" height="14.86"/><rect class="cls-2" x="64.16" y="738.95" width="55.75" height="14.86"/><rect class="cls-2" x="64.16" y="768.21" width="55.75" height="14.86"/><rect class="cls-2" x="64.16" y="797.47" width="55.75" height="14.86"/><rect class="cls-2" x="64.16" y="826.74" width="55.75" height="14.86"/><rect class="cls-2" x="64.16" y="856" width="55.75" height="14.86"/><rect class="cls-2" x="64.16" y="885.26" width="55.75" height="14.86"/><rect class="cls-2" x="64.16" y="914.52" width="55.75" height="14.86"/><rect class="cls-2" x="64.16" y="943.79" width="55.75" height="14.86"/><rect class="cls-2" x="64.16" y="973.05" width="55.75" height="14.86"/><rect class="cls-2" x="64.16" y="1002.31" width="55.75" height="14.86"/><rect class="cls-2" x="64.16" y="1031.57" width="55.75" height="14.86"/><rect class="cls-2" x="64.16" y="1060.84" width="55.75" height="14.86"/><rect class="cls-1" x="64.16" y="1090.1" width="55.75" height="14.86"/><rect class="cls-1" x="64.16" y="1119.36" width="55.75" height="14.86"/><rect class="cls-1" x="64.16" y="1148.62" width="55.75" height="14.86"/><rect class="cls-1" x="64.16" y="1177.89" width="55.75" height="14.86"/><rect class="cls-1" x="64.16" y="1207.15" width="55.75" height="14.86"/><rect class="cls-1" x="64.16" y="1236.41" width="55.75" height="14.86"/><rect class="cls-1" x="64.16" y="1265.67" width="55.75" height="14.86"/><rect class="cls-1" x="64.16" y="1294.94" width="55.75" height="14.86"/><rect class="cls-1" x="64.16" y="1324.2" width="55.75" height="14.86"/><rect class="cls-1" x="64.16" y="1353.46" width="55.75" height="14.86"/><rect class="cls-1" x="64.16" y="1382.72" width="55.75" height="14.86"/><rect class="cls-1" x="64.16" y="1411.99" width="55.75" height="14.86"/><rect class="cls-2" x="64.16" y="1441.25" width="55.75" height="14.86"/><rect class="cls-2" x="64.16" y="1470.51" width="55.75" height="14.86"/><rect class="cls-2" x="64.16" y="1499.77" width="55.75" height="14.86"/><rect class="cls-2" x="64.16" y="1529.04" width="55.75" height="14.86"/><rect class="cls-2" x="64.16" y="1558.04" width="55.75" height="14.86"/><rect class="cls-2" x="64.16" y="1587.3" width="55.75" height="14.86"/><rect class="cls-2" x="64.16" y="1616.56" width="55.75" height="14.86"/><rect class="cls-2" x="64.16" y="1587.3" width="55.75" height="14.86"/><rect class="cls-2" x="64.16" y="1645.82" width="55.75" height="14.86"/><path d="M118.78,1711.67a22.77,22.77,0,0,1-8.25,9.69A27.31,27.31,0,0,1,99,1725.82a70.8,70.8,0,0,1-11.06.48v-40.83q-8.39.34-11.76,5.86a15,15,0,0,0-2.1,8.08,12.45,12.45,0,0,0,2.56,8.14,12.27,12.27,0,0,0,3.84,3v15q-5-.59-10.08-5.43-8.13-7.53-8.13-21.09a30.66,30.66,0,0,1,6.86-19.74q6.86-8.55,22.32-8.55,14.48,0,22.21,7.72t7.73,20A32.05,32.05,0,0,1,118.78,1711.67Zm-12.59-21.93a15.1,15.1,0,0,0-8.63-3.9v25.25q5.8-.4,8.81-3.9a12.89,12.89,0,0,0,3-8.69Q109.37,1692.85,106.18,1689.74Z"/><path d="M121.21,1764.86q0,.28-.08,1.26H106.2q.15-1.39.2-2.47t.05-1.75q0-8.85-5.73-11.88-3.22-1.7-9.92-1.7H64.16v-14.76h55.75v14h-9.72q5.58,3.39,7.62,5.91,3.42,4.11,3.43,10.7C121.23,1764.44,121.23,1764.67,121.21,1764.86Z"/></svg>