<svg id="圖層_1" data-name="圖層 1" xmlns="http://www.w3.org/2000/svg" viewBox="0 0 3448 972"><defs><style>.cls-1{fill:#fff;}.cls-2{fill:#231815;}.cls-3,.cls-4,.cls-5,.cls-6,.cls-7,.cls-8{fill:none;stroke-miterlimit:10;}.cls-3,.cls-6{stroke:#fff;}.cls-4,.cls-7,.cls-8{stroke:#231815;}.cls-5{stroke:#f7f7f7;}.cls-6,.cls-7{stroke-width:5px;}.cls-8{stroke-width:4px;}</style></defs><title>WebUse_title</title><path d="M350.78,507.42q-12,14.79-36.58,14.79t-36.58-14.79q-12-14.79-12-35.61,0-20.47,12-35.48t36.58-15q24.53,0,36.58,15t12,35.48Q362.83,492.63,350.78,507.42Zm-19.9-13.67q5.85-7.72,5.85-21.93t-5.85-21.89q-5.85-7.67-16.76-7.67t-16.81,7.67q-5.89,7.67-5.89,21.89t5.89,21.93q5.89,7.71,16.81,7.72T330.88,493.74Z"/><path d="M405.43,424.36v57q0,8.07,1.91,12.15,3.39,7.21,13.29,7.2,12.68,0,17.37-10.24,2.43-5.56,2.43-14.67V424.36h25.23V519H441.49V505.62q-.35.44-1.74,2.6a17.35,17.35,0,0,1-3.31,3.82,34.53,34.53,0,0,1-11.27,7.12,38.53,38.53,0,0,1-12.75,1.91q-21.07,0-28.38-15.11-4.09-8.33-4.09-24.57v-57Z"/><path d="M480.07,442.86V425.23h13.27V398.84H518v26.39h15.45v17.62H518v50q0,5.82,1.48,7.25t9.08,1.43q1.13,0,2.4,0t2.49-.13v18.49l-11.79.43q-17.64.61-24.09-6.08-4.19-4.25-4.19-13.11V442.86Z"/><path d="M574.79,519H549.91V391h24.88Z"/><rect class="cls-1" x="698.76" y="424.36" width="25.23" height="94.63"/><rect class="cls-1" x="698.33" y="366.22" width="26.1" height="25.23"/><rect class="cls-2" x="847.35" y="366.22" width="26.1" height="25.23"/><rect class="cls-1" x="946.7" y="366.22" width="26.1" height="25.23"/><rect class="cls-1" x="1344.09" y="366.22" width="26.1" height="25.23"/><rect class="cls-2" x="1393.77" y="366.22" width="26.1" height="25.23"/><rect class="cls-2" x="1493.12" y="366.22" width="26.1" height="25.23"/><rect class="cls-2" x="1542.79" y="366.22" width="26.1" height="25.23"/><rect class="cls-1" x="2039.53" y="366.22" width="26.1" height="25.23"/><rect class="cls-2" x="1940.19" y="366.22" width="26.1" height="25.23"/><rect class="cls-1" x="2585.95" y="366.22" width="26.1" height="25.23"/><rect class="cls-2" x="2635.63" y="366.22" width="26.1" height="25.23"/><rect class="cls-2" x="2734.97" y="366.22" width="26.1" height="25.23"/><rect class="cls-2" x="2784.64" y="366.22" width="26.1" height="25.23"/><rect class="cls-2" x="748.44" y="424.36" width="25.23" height="94.63"/><rect class="cls-2" x="798.11" y="424.36" width="25.23" height="94.63"/><rect class="cls-2" x="847.78" y="424.36" width="25.23" height="94.63"/><rect class="cls-2" x="649.09" y="424.36" width="25.23" height="94.63"/><rect class="cls-2" x="748.44" y="424.36" width="25.23" height="94.63"/><rect class="cls-2" x="649.09" y="424.36" width="25.23" height="94.63"/><rect class="cls-2" x="599.41" y="424.36" width="25.23" height="94.63"/><rect class="cls-2" x="897.46" y="424.36" width="25.23" height="94.63"/><rect class="cls-1" x="947.13" y="424.36" width="25.23" height="94.63"/><rect class="cls-1" x="996.81" y="424.36" width="25.23" height="94.63"/><rect class="cls-1" x="1046.48" y="424.36" width="25.23" height="94.63"/><rect class="cls-1" x="1096.16" y="424.36" width="25.23" height="94.63"/><rect class="cls-1" x="1145.83" y="424.36" width="25.23" height="94.63"/><rect class="cls-1" x="1195.51" y="424.36" width="25.23" height="94.63"/><rect class="cls-1" x="1245.18" y="424.36" width="25.23" height="94.63"/><rect class="cls-1" x="1294.85" y="424.36" width="25.23" height="94.63"/><rect class="cls-1" x="1344.53" y="424.36" width="25.23" height="94.63"/><rect class="cls-2" x="1394.2" y="424.36" width="25.23" height="94.63"/><rect class="cls-2" x="1443.88" y="424.36" width="25.23" height="94.63"/><rect class="cls-2" x="1493.55" y="424.36" width="25.23" height="94.63"/><rect class="cls-2" x="1543.23" y="424.36" width="25.23" height="94.63"/><rect class="cls-2" x="1592.9" y="424.36" width="25.23" height="94.63"/><rect class="cls-2" x="1642.57" y="424.36" width="25.23" height="94.63"/><rect class="cls-2" x="1692.25" y="424.36" width="25.23" height="94.63"/><rect class="cls-2" x="1741.92" y="424.36" width="25.23" height="94.63"/><rect class="cls-2" x="1791.6" y="424.36" width="25.23" height="94.63"/><rect class="cls-2" x="1841.27" y="424.36" width="25.23" height="94.63"/><rect class="cls-2" x="1890.95" y="424.36" width="25.23" height="94.63"/><rect class="cls-2" x="1940.62" y="424.36" width="25.23" height="94.63"/><rect class="cls-2" x="1990.29" y="424.36" width="25.23" height="94.63"/><rect class="cls-1" x="2039.97" y="424.36" width="25.23" height="94.63"/><rect class="cls-1" x="2089.64" y="424.36" width="25.23" height="94.63"/><rect class="cls-1" x="2139.32" y="424.36" width="25.23" height="94.63"/><rect class="cls-1" x="2188.99" y="424.36" width="25.23" height="94.63"/><rect class="cls-1" x="2238.67" y="424.36" width="25.23" height="94.63"/><rect class="cls-1" x="2288.34" y="424.36" width="25.23" height="94.63"/><rect class="cls-1" x="2338.01" y="424.36" width="25.23" height="94.63"/><rect class="cls-1" x="2387.69" y="424.36" width="25.23" height="94.63"/><rect class="cls-1" x="2437.36" y="424.36" width="25.23" height="94.63"/><rect class="cls-1" x="2487.04" y="424.36" width="25.23" height="94.63"/><rect class="cls-1" x="2536.71" y="424.36" width="25.23" height="94.63"/><rect class="cls-1" x="2586.39" y="424.36" width="25.23" height="94.63"/><rect class="cls-2" x="2636.06" y="424.36" width="25.23" height="94.63"/><rect class="cls-2" x="2685.74" y="424.36" width="25.23" height="94.63"/><rect class="cls-2" x="2735.41" y="424.36" width="25.23" height="94.63"/><rect class="cls-2" x="2785.08" y="424.36" width="25.23" height="94.63"/><rect class="cls-2" x="2834.32" y="424.36" width="25.23" height="94.63"/><rect class="cls-2" x="2883.99" y="424.36" width="25.23" height="94.63"/><rect class="cls-2" x="2933.66" y="424.36" width="25.23" height="94.63"/><rect class="cls-2" x="2883.99" y="424.36" width="25.23" height="94.63"/><rect class="cls-2" x="2983.34" y="424.36" width="25.23" height="94.63"/><path d="M3095.12,426.28a38.65,38.65,0,0,1,16.44,14,46.36,46.36,0,0,1,7.58,19.56,120.19,120.19,0,0,1,.82,18.78h-69.31q.58,14.24,10,20a25.37,25.37,0,0,0,13.72,3.56q8.5,0,13.82-4.34a20.83,20.83,0,0,0,5.12-6.51h25.4q-1,8.42-9.22,17.1-12.79,13.8-35.8,13.8a52.05,52.05,0,0,1-33.52-11.64q-14.52-11.64-14.52-37.88,0-24.59,13.11-37.71t34-13.12A54.41,54.41,0,0,1,3095.12,426.28Zm-37.22,21.37q-5.28,5.41-6.63,14.65h42.86q-.68-9.85-6.63-15a21.88,21.88,0,0,0-14.76-5.1Q3063.17,442.25,3057.89,447.66Z"/><path d="M3185.4,422.15q.48,0,2.14.13v25.35q-2.36-.26-4.19-.35t-3-.09q-15,0-20.17,9.72-2.88,5.47-2.88,16.84V519h-25.06V424.36H3156v16.5q5.76-9.46,10-12.94,7-5.81,18.16-5.82C3184.69,422.11,3185.08,422.12,3185.4,422.15Z"/><path class="cls-1" d="M279.5,728.49h9.72l14.54,41.1h-9.31l-2.71-8.45H276.6l-2.79,8.45h-9Zm-.57,25.57h10.53l-5.19-16.17Z"/><path class="cls-1" d="M324.47,739.69A9.67,9.67,0,0,1,328,743v-14.5H336v41h-7.72v-4.21a11.21,11.21,0,0,1-3.88,3.93,10.88,10.88,0,0,1-5.41,1.23,11.3,11.3,0,0,1-9-4.31,16.55,16.55,0,0,1-3.64-11.06q0-7.78,3.58-12.24a11.66,11.66,0,0,1,9.58-4.46A9.81,9.81,0,0,1,324.47,739.69Zm2,21.65a11.09,11.09,0,0,0,1.76-6.5q0-5.58-2.82-8a6.07,6.07,0,0,0-4-1.45,5.58,5.58,0,0,0-5.12,2.63,14.21,14.21,0,0,0,0,13.27,5.61,5.61,0,0,0,5,2.52A5.87,5.87,0,0,0,326.42,761.34Z"/><path class="cls-1" d="M381.16,739.31a8.85,8.85,0,0,1,3.54,2.73,8.74,8.74,0,0,1,1.73,3.9,27,27,0,0,1,.28,4.49l-.06,19.16h-8.14V750.24a6.35,6.35,0,0,0-.56-2.84,4,4,0,0,0-3.9-2.12,4.57,4.57,0,0,0-4.54,2.73,8.58,8.58,0,0,0-.64,3.49v18.1h-8V751.5a10.18,10.18,0,0,0-.56-3.93,3.9,3.9,0,0,0-3.93-2.2q-3.4,0-4.57,2.2a8.49,8.49,0,0,0-.64,3.74V769.6H343.1V739.26h7.72v4.43a12.78,12.78,0,0,1,2.79-3.37,11,11,0,0,1,11.63-.25,8.92,8.92,0,0,1,2.62,3.65,10.11,10.11,0,0,1,3.88-3.93,11.84,11.84,0,0,1,5.47-1.25A10.58,10.58,0,0,1,381.16,739.31Z"/><path class="cls-1" d="M402.19,735.58h-8.06v-7.33h8.06Zm-8.06,3.63h8.06v30.4h-8.06Z"/><path class="cls-1" d="M416,759.89a5.29,5.29,0,0,0,1.09,3q1.48,1.59,5.49,1.59a8.41,8.41,0,0,0,3.74-.7,2.34,2.34,0,0,0,.27-4.13q-1.12-.7-8.31-2.4-5.18-1.28-7.3-3.21a7,7,0,0,1-2.12-5.47,9.47,9.47,0,0,1,3.31-7.24q3.31-3,9.32-3a17.12,17.12,0,0,1,9.29,2.27q3.59,2.27,4.12,7.85H427a4.7,4.7,0,0,0-.87-2.43q-1.31-1.62-4.47-1.62a6.44,6.44,0,0,0-3.71.81,2.33,2.33,0,0,0-1.1,1.9,2.07,2.07,0,0,0,1.17,2q1.17.64,8.3,2.2a15.22,15.22,0,0,1,7.12,3.37,7.66,7.66,0,0,1,2.34,5.72,9.23,9.23,0,0,1-3.37,7.38q-3.37,2.86-10.41,2.86t-10.6-3a9.83,9.83,0,0,1-3.42-7.71Z"/><path class="cls-1" d="M447.81,759.89a5.29,5.29,0,0,0,1.09,3q1.48,1.59,5.49,1.59a8.41,8.41,0,0,0,3.74-.7,2.34,2.34,0,0,0,.27-4.13q-1.12-.7-8.31-2.4-5.18-1.28-7.3-3.21a7,7,0,0,1-2.12-5.47,9.47,9.47,0,0,1,3.31-7.24q3.31-3,9.32-3a17.12,17.12,0,0,1,9.29,2.27q3.59,2.27,4.12,7.85h-7.95a4.7,4.7,0,0,0-.87-2.43q-1.31-1.62-4.47-1.62a6.44,6.44,0,0,0-3.71.81,2.33,2.33,0,0,0-1.1,1.9,2.07,2.07,0,0,0,1.17,2q1.17.64,8.3,2.2a15.22,15.22,0,0,1,7.12,3.37,7.66,7.66,0,0,1,2.34,5.72,9.23,9.23,0,0,1-3.37,7.38q-3.37,2.86-10.41,2.86t-10.6-3a9.83,9.83,0,0,1-3.42-7.71Z"/><path class="cls-1" d="M481.58,735.58h-8.06v-7.33h8.06Zm-8.06,3.63h8.06v30.4h-8.06Z"/><path class="cls-1" d="M514.63,765.88q-3.85,4.75-11.68,4.75t-11.68-4.75a18.86,18.86,0,0,1,0-22.83q3.85-4.82,11.68-4.82T514.63,743a18.86,18.86,0,0,1,0,22.83Zm-6.36-4.39q1.87-2.48,1.87-7t-1.87-7a7.06,7.06,0,0,0-10.72,0q-1.88,2.46-1.88,7t1.88,7a7,7,0,0,0,10.72,0Z"/><path class="cls-1" d="M548.67,740.94q3,2.47,3,8.18V769.6h-8.14V751.11a8.48,8.48,0,0,0-.64-3.68q-1.16-2.34-4.43-2.34a5.49,5.49,0,0,0-5.51,3.43,11.86,11.86,0,0,0-.78,4.63V769.6h-7.95V739.26h7.7v4.43a13.47,13.47,0,0,1,2.89-3.37,10,10,0,0,1,6.19-1.84A11.66,11.66,0,0,1,548.67,740.94Z"/><path d="M684.1,766.46q-4,4.11-11.54,4.11T661,766.46q-5.36-5-5.35-14.53,0-9.68,5.35-14.53,4-4.11,11.54-4.11t11.54,4.11q5.33,4.85,5.33,14.53Q689.43,761.42,684.1,766.46Zm-4.6-5.35q2.57-3.23,2.57-9.18t-2.57-9.17a8.4,8.4,0,0,0-6.94-3.24,8.51,8.51,0,0,0-7,3.23Q663,746,663,751.93t2.61,9.18a8.51,8.51,0,0,0,7,3.23A8.41,8.41,0,0,0,679.5,761.11Z"/><path d="M716.41,746.34q3.19,3.37,3.19,9.9,0,6.88-3.12,10.49a10.11,10.11,0,0,1-8,3.61,8.41,8.41,0,0,1-5.2-1.55,10,10,0,0,1-2.21-2.51v13.58h-6.74V743.54h6.53v3.85a11,11,0,0,1,2.36-2.68,8.7,8.7,0,0,1,5.44-1.75A10.3,10.3,0,0,1,716.41,746.34Zm-5.23,4.9a4.85,4.85,0,0,0-4.5-2.32,5.12,5.12,0,0,0-5.14,3.51,13.19,13.19,0,0,0-.72,4.73q0,4.54,2.44,6.38a5.6,5.6,0,0,0,3.43,1.08,5,5,0,0,0,4.38-2.2,11.52,11.52,0,0,0,.12-11.19Z"/><path d="M741.38,744.07a10.59,10.59,0,0,1,4.5,3.85,12.8,12.8,0,0,1,2.08,5.39,33.31,33.31,0,0,1,.22,5.17h-19q.16,3.92,2.72,5.5a6.92,6.92,0,0,0,3.76,1,5.29,5.29,0,0,0,5.18-3h7a8.51,8.51,0,0,1-2.53,4.71q-3.5,3.8-9.8,3.8a14.21,14.21,0,0,1-9.18-3.21q-4-3.21-4-10.43,0-6.77,3.59-10.38a12.56,12.56,0,0,1,9.32-3.61A14.82,14.82,0,0,1,741.38,744.07ZM731.19,750a7.07,7.07,0,0,0-1.82,4h11.74a5.68,5.68,0,0,0-1.81-4.12,6,6,0,0,0-4-1.41A5.4,5.4,0,0,0,731.19,750Z"/><path d="M772.63,745q2.56,2.12,2.56,7V769.6h-7V753.75a7.28,7.28,0,0,0-.55-3.15,3.83,3.83,0,0,0-3.8-2,4.71,4.71,0,0,0-4.72,2.94,10.18,10.18,0,0,0-.66,4v14.1h-6.81v-26h6.6v3.8a11.54,11.54,0,0,1,2.47-2.89,8.58,8.58,0,0,1,5.31-1.58A10,10,0,0,1,772.63,745Z"/><path d="M788.53,740.43h-6.91v-6.29h6.91Zm-6.91,3.11h6.91V769.6h-6.91Z"/><path d="M816.14,745q2.56,2.12,2.56,7V769.6h-7V753.75a7.28,7.28,0,0,0-.55-3.15,3.83,3.83,0,0,0-3.8-2,4.71,4.71,0,0,0-4.72,2.94,10.18,10.18,0,0,0-.66,4v14.1h-6.81v-26h6.6v3.8a11.54,11.54,0,0,1,2.47-2.89,8.58,8.58,0,0,1,5.31-1.58A10,10,0,0,1,816.14,745Z"/><path d="M837.92,743.52a8.18,8.18,0,0,1,4,3.78v-3.75h6.64v24.71q0,5-1.7,7.6-2.92,4.4-11.19,4.4a15.24,15.24,0,0,1-8.15-2,7.23,7.23,0,0,1-3.49-5.86h7.41a3.07,3.07,0,0,0,.93,1.72,5.76,5.76,0,0,0,3.71.93q3.68,0,4.92-2.46a12.48,12.48,0,0,0,.81-5.31v-1.67a8.3,8.3,0,0,1-2.1,2.51,8.46,8.46,0,0,1-5.28,1.55,10,10,0,0,1-8-3.53q-3-3.52-3-9.55a16.11,16.11,0,0,1,2.89-9.76,9.54,9.54,0,0,1,8.19-4A9,9,0,0,1,837.92,743.52Zm2.32,18.68q1.64-1.8,1.64-5.75a8.82,8.82,0,0,0-1.56-5.64,5.09,5.09,0,0,0-4.18-1.94,4.92,4.92,0,0,0-4.93,3.37,12,12,0,0,0-.71,4.42,10.12,10.12,0,0,0,.76,4,5,5,0,0,0,5,3.3A5.23,5.23,0,0,0,840.24,762.2Z"/><path class="cls-1" d="M964.71,751.47a11.91,11.91,0,0,0,2.24,6q3,3.63,10.45,3.63a22.48,22.48,0,0,0,7.2-1q5.25-1.83,5.25-6.81a5,5,0,0,0-2.57-4.5,27.9,27.9,0,0,0-8.15-2.75l-6.36-1.39q-9.37-2.07-12.88-4.5Q954,736.13,954,727.49a16.87,16.87,0,0,1,5.81-13.11q5.81-5.22,17.06-5.22a26.15,26.15,0,0,1,16,4.92q6.63,4.92,7,14.28H988a8.41,8.41,0,0,0-4.74-7.53,16.23,16.23,0,0,0-7.31-1.47,13.91,13.91,0,0,0-7.76,1.91,6,6,0,0,0-2.9,5.34,5,5,0,0,0,2.86,4.7,35.56,35.56,0,0,0,7.8,2.43l10.3,2.43q6.77,1.59,10.16,4.26,5.25,4.14,5.25,12a16.85,16.85,0,0,1-6.22,13.37q-6.22,5.32-17.58,5.32-11.6,0-18.24-5.24T953,751.47Z"/><path class="cls-1" d="M1037.67,727.05a17.67,17.67,0,0,1,7.5,6.42,21.35,21.35,0,0,1,3.46,9,55.54,55.54,0,0,1,.37,8.62h-31.63q.26,6.53,4.54,9.16a11.53,11.53,0,0,0,6.26,1.63,8.82,8.82,0,0,0,8.64-5h11.59q-.46,3.86-4.21,7.85-5.83,6.33-16.34,6.33a23.67,23.67,0,0,1-15.29-5.34q-6.63-5.34-6.63-17.38,0-11.28,6-17.3t15.53-6A24.72,24.72,0,0,1,1037.67,727.05Zm-17,9.81a11.79,11.79,0,0,0-3,6.72h19.56a9.48,9.48,0,0,0-3-6.86,10,10,0,0,0-6.73-2.34A9,9,0,0,0,1020.68,736.86Z"/><path class="cls-1" d="M1063.55,755.73a7.57,7.57,0,0,0,1.56,4.3q2.12,2.27,7.85,2.27a12,12,0,0,0,5.34-1,3.19,3.19,0,0,0,2-3,3.22,3.22,0,0,0-1.6-2.91q-1.6-1-11.88-3.43-7.4-1.83-10.43-4.58t-3-7.81a13.53,13.53,0,0,1,4.73-10.34q4.73-4.32,13.31-4.32,8.14,0,13.27,3.25t5.89,11.21h-11.35a6.71,6.71,0,0,0-1.24-3.47q-1.88-2.31-6.39-2.31-3.71,0-5.29,1.16a3.32,3.32,0,0,0-1.58,2.71,3,3,0,0,0,1.68,2.83q1.68.92,11.85,3.15,6.78,1.59,10.17,4.82a10.94,10.94,0,0,1,3.35,8.17,13.18,13.18,0,0,1-4.81,10.54q-4.81,4.08-14.87,4.08-10.26,0-15.15-4.32a14,14,0,0,1-4.89-11Z"/><path class="cls-1" d="M1108.92,755.73a7.57,7.57,0,0,0,1.56,4.3q2.12,2.27,7.85,2.27a12,12,0,0,0,5.34-1,3.19,3.19,0,0,0,2-3,3.22,3.22,0,0,0-1.6-2.91q-1.6-1-11.88-3.43-7.4-1.83-10.43-4.58t-3-7.81a13.53,13.53,0,0,1,4.73-10.34q4.73-4.32,13.31-4.32,8.14,0,13.27,3.25t5.89,11.21h-11.35a6.71,6.71,0,0,0-1.24-3.47q-1.88-2.31-6.39-2.31-3.71,0-5.29,1.16a3.32,3.32,0,0,0-1.58,2.71,3,3,0,0,0,1.68,2.83q1.68.92,11.85,3.15,6.78,1.59,10.17,4.82a10.94,10.94,0,0,1,3.35,8.17,13.18,13.18,0,0,1-4.81,10.54q-4.81,4.08-14.87,4.08-10.26,0-15.15-4.32a14,14,0,0,1-4.89-11Z"/><path class="cls-1" d="M1157.17,721h-11.51V710.52h11.51Zm-11.51,5.18h11.51V769.6h-11.51Z"/><path class="cls-1" d="M1204.37,764.28q-5.5,6.79-16.69,6.79T1171,764.28a26.94,26.94,0,0,1,0-32.62q5.5-6.89,16.69-6.89t16.69,6.89a26.94,26.94,0,0,1,0,32.62Zm-9.08-6.27q2.67-3.54,2.67-10.06t-2.67-10a10.09,10.09,0,0,0-15.32,0q-2.69,3.52-2.69,10T1180,758a10.05,10.05,0,0,0,15.32,0Z"/><path class="cls-1" d="M1253,728.66q4.26,3.53,4.26,11.69V769.6h-11.63V743.18a12.13,12.13,0,0,0-.91-5.26q-1.66-3.35-6.33-3.35-5.73,0-7.87,4.9a16.94,16.94,0,0,0-1.11,6.61v23.5h-11.35V726.25h11v6.33a19.26,19.26,0,0,1,4.13-4.82,14.29,14.29,0,0,1,8.85-2.63A16.64,16.64,0,0,1,1253,728.66Z"/><path class="cls-1" d="M1290.86,729.76V722a50.12,50.12,0,0,0,7.51-.72,10.59,10.59,0,0,0,5.56-3,10,10,0,0,0,2.23-4.14,9.54,9.54,0,0,0,.44-2.31h9.48V769.6h-11.63V729.76Z"/><path d="M1463.52,759.29a13.13,13.13,0,0,1-2.74,5l4,3.81-3.84,4-4.23-4a17.75,17.75,0,0,1-3.35,1.66,18,18,0,0,1-5.67.79,16.23,16.23,0,0,1-11.39-4.11q-5.46-4.95-5.46-14.53t5.59-14.6a16.51,16.51,0,0,1,11.35-4,16.29,16.29,0,0,1,11.47,4.28q5.35,4.95,5.35,13.84A23.44,23.44,0,0,1,1463.52,759.29ZM1450.17,764a12,12,0,0,0,1.65-.6l-3.57-3.39,3.78-3.95,3.58,3.37a16.59,16.59,0,0,0,1.17-3,17.33,17.33,0,0,0,.53-4.52q0-5.93-2.43-9.17a8.31,8.31,0,0,0-7.09-3.24,8.64,8.64,0,0,0-7,3.11q-2.61,3.11-2.61,9.3,0,7.24,3.73,10.37a8.7,8.7,0,0,0,5.79,2A9.44,9.44,0,0,0,1450.17,764Z"/><path d="M1470.79,754.87a17.26,17.26,0,0,1,5.16-4.5l.74-.45a14.64,14.64,0,0,1-2.37-3.52,8.73,8.73,0,0,1-.84-3.73,7.39,7.39,0,0,1,2.61-6,10.26,10.26,0,0,1,6.77-2.17,9.06,9.06,0,0,1,6.28,2.22,7.27,7.27,0,0,1,2.48,5.67,8.09,8.09,0,0,1-1.49,5.06,14.5,14.5,0,0,1-4.36,3.6l5.06,6.14a10.1,10.1,0,0,0,1.34-2.7,10.48,10.48,0,0,0,.5-3.08h6a19.32,19.32,0,0,1-1.55,6.5,18.43,18.43,0,0,1-2.48,4.08l6.4,7.64h-8.25l-2.45-3a15.4,15.4,0,0,1-3.33,2.45,13.7,13.7,0,0,1-6.35,1.42q-5.41,0-8.46-3.16a9.87,9.87,0,0,1-3-7A9.31,9.31,0,0,1,1470.79,754.87Zm6.66,8.44a5,5,0,0,0,3.71,1.46,7,7,0,0,0,3.22-.77,9.6,9.6,0,0,0,2.47-1.71l-6.59-8a11.94,11.94,0,0,0-3.42,3,5.15,5.15,0,0,0-.83,2.85A4.48,4.48,0,0,0,1477.45,763.31Zm3-18.87a29.77,29.77,0,0,0,1.93,2.47,12.88,12.88,0,0,0,2.13-1.7,4,4,0,0,0,1.24-2.8,2.92,2.92,0,0,0-.74-2,2.82,2.82,0,0,0-2.26-.86,3.3,3.3,0,0,0-1.76.5,2.54,2.54,0,0,0-1.24,2.35A3.67,3.67,0,0,0,1480.45,744.44Z"/><path d="M1515.71,734.36H1524l12.46,35.23h-8l-2.33-7.24h-13l-2.39,7.24h-7.7Zm-.49,21.92h9l-4.45-13.86Z"/><path d="M1552.46,745.69v-4.64a30,30,0,0,0,4.51-.43,6.35,6.35,0,0,0,3.34-1.82,6,6,0,0,0,1.33-2.49,5.72,5.72,0,0,0,.26-1.39h5.69V769.6h-7v-23.9Z"/><path d="M1677.93,734.36h7.36v28.9h17.59v6.33h-25Z"/><path d="M1714.07,743.54v15.7a8.26,8.26,0,0,0,.52,3.35,3.62,3.62,0,0,0,3.64,2,4.75,4.75,0,0,0,4.76-2.82,10.25,10.25,0,0,0,.67-4V743.54h6.91V769.6h-6.62v-3.68q-.1.12-.48.72a4.78,4.78,0,0,1-.91,1.05,9.46,9.46,0,0,1-3.09,2,10.49,10.49,0,0,1-3.49.53q-5.77,0-7.77-4.16a16,16,0,0,1-1.12-6.76v-15.7Z"/><path d="M1758.19,745q2.56,2.12,2.56,7V769.6h-7V753.75a7.28,7.28,0,0,0-.55-3.15,3.83,3.83,0,0,0-3.8-2,4.71,4.71,0,0,0-4.72,2.94,10.18,10.18,0,0,0-.66,4v14.1h-6.81v-26h6.6v3.8a11.54,11.54,0,0,1,2.47-2.89,8.58,8.58,0,0,1,5.31-1.58A10,10,0,0,1,1758.19,745Z"/><path d="M1782.67,752.89a6.05,6.05,0,0,0-1-2.63,4.12,4.12,0,0,0-3.57-1.58,4.7,4.7,0,0,0-4.72,3.42,14.19,14.19,0,0,0-.67,4.82,13,13,0,0,0,.67,4.6,4.56,4.56,0,0,0,4.6,3.25,4.06,4.06,0,0,0,3.4-1.29,6.42,6.42,0,0,0,1.22-3.35h7a11.4,11.4,0,0,1-2.25,5.88q-3.21,4.47-9.5,4.47t-9.26-3.73a15.05,15.05,0,0,1-3-9.67q0-6.7,3.28-10.43a11.42,11.42,0,0,1,9-3.73,13.63,13.63,0,0,1,8,2.2q3.12,2.2,3.7,7.77Z"/><path d="M1813,743.69a7.65,7.65,0,0,1,3.22,2.56,6.82,6.82,0,0,1,1.31,3,37,37,0,0,1,.24,5V769.6h-7V753.73a7,7,0,0,0-.71-3.4,3.57,3.57,0,0,0-3.51-1.82,4.82,4.82,0,0,0-4.07,1.81,8.32,8.32,0,0,0-1.39,5.16V769.6h-6.81V734.48h6.81v12.43a8.33,8.33,0,0,1,3.42-3.17,9.61,9.61,0,0,1,4.08-.9A11,11,0,0,1,1813,743.69Z"/><path class="cls-1" d="M1934,751.47a11.91,11.91,0,0,0,2.24,6q3,3.63,10.45,3.63a22.48,22.48,0,0,0,7.2-1q5.25-1.83,5.25-6.81a5,5,0,0,0-2.57-4.5,27.9,27.9,0,0,0-8.15-2.75L1942,744.7q-9.37-2.07-12.88-4.5-5.94-4.06-5.94-12.71a16.87,16.87,0,0,1,5.81-13.11q5.81-5.22,17.06-5.22a26.15,26.15,0,0,1,16,4.92q6.63,4.92,7,14.28H1957.3a8.41,8.41,0,0,0-4.74-7.53,16.23,16.23,0,0,0-7.31-1.47,13.91,13.91,0,0,0-7.76,1.91,6,6,0,0,0-2.9,5.34,5,5,0,0,0,2.86,4.7,35.56,35.56,0,0,0,7.8,2.43l10.3,2.43q6.77,1.59,10.16,4.26,5.25,4.14,5.25,12a16.85,16.85,0,0,1-6.22,13.37q-6.22,5.32-17.58,5.32-11.6,0-18.24-5.24t-6.64-14.4Z"/><path class="cls-1" d="M2006.94,727.05a17.67,17.67,0,0,1,7.5,6.42,21.35,21.35,0,0,1,3.46,9,55.54,55.54,0,0,1,.37,8.62h-31.63q.26,6.53,4.54,9.16a11.53,11.53,0,0,0,6.26,1.63,8.82,8.82,0,0,0,8.64-5h11.59q-.46,3.86-4.21,7.85-5.83,6.33-16.34,6.33a23.67,23.67,0,0,1-15.29-5.34q-6.63-5.34-6.63-17.38,0-11.28,6-17.3t15.53-6A24.72,24.72,0,0,1,2006.94,727.05Zm-17,9.81a11.79,11.79,0,0,0-3,6.72h19.56a9.48,9.48,0,0,0-3-6.86,10,10,0,0,0-6.73-2.34A9,9,0,0,0,1990,736.86Z"/><path class="cls-1" d="M2032.83,755.73a7.57,7.57,0,0,0,1.56,4.3q2.12,2.27,7.85,2.27a12,12,0,0,0,5.34-1,3.19,3.19,0,0,0,2-3,3.22,3.22,0,0,0-1.6-2.91q-1.6-1-11.88-3.43-7.4-1.83-10.43-4.58t-3-7.81a13.53,13.53,0,0,1,4.73-10.34q4.73-4.32,13.31-4.32,8.14,0,13.27,3.25t5.89,11.21h-11.35a6.71,6.71,0,0,0-1.24-3.47q-1.88-2.31-6.39-2.31-3.71,0-5.29,1.16a3.32,3.32,0,0,0-1.58,2.71,3,3,0,0,0,1.68,2.83q1.68.92,11.85,3.15,6.78,1.59,10.17,4.82a10.94,10.94,0,0,1,3.35,8.17,13.18,13.18,0,0,1-4.81,10.54q-4.81,4.08-14.87,4.08-10.26,0-15.15-4.32a14,14,0,0,1-4.89-11Z"/><path class="cls-1" d="M2078.2,755.73a7.57,7.57,0,0,0,1.56,4.3q2.12,2.27,7.85,2.27a12,12,0,0,0,5.34-1,3.19,3.19,0,0,0,2-3,3.22,3.22,0,0,0-1.6-2.91q-1.6-1-11.88-3.43-7.4-1.83-10.43-4.58t-3-7.81a13.53,13.53,0,0,1,4.73-10.34q4.73-4.32,13.31-4.32,8.14,0,13.27,3.25t5.89,11.21h-11.35a6.71,6.71,0,0,0-1.24-3.47q-1.88-2.31-6.39-2.31-3.71,0-5.29,1.16a3.32,3.32,0,0,0-1.58,2.71,3,3,0,0,0,1.68,2.83q1.68.92,11.85,3.15,6.78,1.59,10.17,4.82a10.94,10.94,0,0,1,3.35,8.17A13.18,13.18,0,0,1,2101.6,767q-4.81,4.08-14.87,4.08-10.26,0-15.15-4.32a14,14,0,0,1-4.89-11Z"/><path class="cls-1" d="M2126.45,721h-11.51V710.52h11.51Zm-11.51,5.18h11.51V769.6h-11.51Z"/><path class="cls-1" d="M2173.65,764.28q-5.5,6.79-16.69,6.79t-16.69-6.79a26.94,26.94,0,0,1,0-32.62q5.5-6.89,16.69-6.89t16.69,6.89a26.94,26.94,0,0,1,0,32.62Zm-9.08-6.27q2.67-3.54,2.67-10.06t-2.67-10a10.09,10.09,0,0,0-15.32,0q-2.69,3.52-2.69,10t2.69,10.06a10.05,10.05,0,0,0,15.32,0Z"/><path class="cls-1" d="M2222.29,728.66q4.26,3.53,4.26,11.69V769.6h-11.63V743.18a12.13,12.13,0,0,0-.91-5.26q-1.66-3.35-6.33-3.35-5.73,0-7.87,4.9a16.94,16.94,0,0,0-1.11,6.61v23.5h-11.35V726.25h11v6.33a19.26,19.26,0,0,1,4.13-4.82,14.29,14.29,0,0,1,8.85-2.63A16.64,16.64,0,0,1,2222.29,728.66Z"/><path class="cls-1" d="M2259.7,758.24q2.43-5.78,11.47-12.23,7.85-5.62,10.16-8a11.89,11.89,0,0,0,3.54-8.29,9.18,9.18,0,0,0-2-6.09,7.16,7.16,0,0,0-5.82-2.43q-5.18,0-7.05,3.86a19.16,19.16,0,0,0-1.28,7.09h-11q.28-7.37,2.67-11.91,4.55-8.64,16.15-8.64,9.17,0,14.59,5.08t5.42,13.45a18.18,18.18,0,0,1-3.83,11.39,38.1,38.1,0,0,1-8.26,7.37l-4.55,3.23q-4.27,3-5.84,4.38a12.85,12.85,0,0,0-2.65,3.15h25.22v10H2257A27.14,27.14,0,0,1,2259.7,758.24Z"/><path d="M2432.8,759.29a13.13,13.13,0,0,1-2.74,5l4,3.81-3.84,4-4.23-4a17.75,17.75,0,0,1-3.35,1.66,18,18,0,0,1-5.67.79,16.23,16.23,0,0,1-11.39-4.11q-5.46-4.95-5.46-14.53t5.59-14.6a16.51,16.51,0,0,1,11.35-4,16.29,16.29,0,0,1,11.47,4.28q5.35,4.95,5.35,13.84A23.44,23.44,0,0,1,2432.8,759.29ZM2419.44,764a12,12,0,0,0,1.65-.6l-3.57-3.39,3.78-3.95,3.58,3.37a16.59,16.59,0,0,0,1.17-3,17.33,17.33,0,0,0,.53-4.52q0-5.93-2.43-9.17a8.31,8.31,0,0,0-7.09-3.24,8.64,8.64,0,0,0-7,3.11q-2.61,3.11-2.61,9.3,0,7.24,3.73,10.37a8.7,8.7,0,0,0,5.79,2A9.44,9.44,0,0,0,2419.44,764Z"/><path d="M2440.07,754.87a17.26,17.26,0,0,1,5.16-4.5l.74-.45a14.64,14.64,0,0,1-2.37-3.52,8.73,8.73,0,0,1-.84-3.73,7.39,7.39,0,0,1,2.61-6,10.26,10.26,0,0,1,6.77-2.17,9.06,9.06,0,0,1,6.28,2.22,7.27,7.27,0,0,1,2.48,5.67,8.09,8.09,0,0,1-1.49,5.06,14.5,14.5,0,0,1-4.36,3.6l5.06,6.14a10.1,10.1,0,0,0,1.34-2.7,10.48,10.48,0,0,0,.5-3.08h6a19.32,19.32,0,0,1-1.55,6.5A18.43,18.43,0,0,1,2464,762l6.4,7.64h-8.25l-2.45-3a15.4,15.4,0,0,1-3.33,2.45,13.7,13.7,0,0,1-6.35,1.42q-5.41,0-8.46-3.16a9.87,9.87,0,0,1-3-7A9.31,9.31,0,0,1,2440.07,754.87Zm6.66,8.44a5,5,0,0,0,3.71,1.46,7,7,0,0,0,3.22-.77,9.6,9.6,0,0,0,2.47-1.71l-6.59-8a11.94,11.94,0,0,0-3.42,3,5.15,5.15,0,0,0-.83,2.85A4.48,4.48,0,0,0,2446.72,763.31Zm3-18.87a29.77,29.77,0,0,0,1.93,2.47,12.88,12.88,0,0,0,2.13-1.7,4,4,0,0,0,1.24-2.8,2.92,2.92,0,0,0-.74-2,2.82,2.82,0,0,0-2.26-.86,3.3,3.3,0,0,0-1.76.5,2.54,2.54,0,0,0-1.24,2.35A3.67,3.67,0,0,0,2449.72,744.44Z"/><path d="M2485,734.36h8.33l12.46,35.23h-8l-2.33-7.24h-13l-2.39,7.24h-7.7Zm-.49,21.92h9l-4.45-13.86Z"/><path d="M2521.48,762.78q1.46-3.46,6.88-7.34a50.48,50.48,0,0,0,6.1-4.83,7.14,7.14,0,0,0,2.13-5,5.51,5.51,0,0,0-1.22-3.66,5,5,0,0,0-7.72.86,11.51,11.51,0,0,0-.76,4.25h-6.62a16.73,16.73,0,0,1,1.6-7.15q2.73-5.19,9.69-5.19a12.3,12.3,0,0,1,8.76,3,10.53,10.53,0,0,1,3.25,8.07,10.91,10.91,0,0,1-2.3,6.84,22.87,22.87,0,0,1-5,4.42l-2.73,1.94q-2.56,1.82-3.51,2.63a7.69,7.69,0,0,0-1.59,1.89h15.13v6h-23.74A16.29,16.29,0,0,1,2521.48,762.78Z"/><path d="M2650.57,738a14.51,14.51,0,0,1,10.83-4.35q8.8,0,12.86,5.83a12.71,12.71,0,0,1,2.41,6.57h-7.36a10,10,0,0,0-1.8-3.82,7.26,7.26,0,0,0-5.83-2.29,7.19,7.19,0,0,0-6.21,3.24q-2.27,3.24-2.27,9.17t2.4,8.88a7.51,7.51,0,0,0,6.09,3,6.9,6.9,0,0,0,5.78-2.53,11.12,11.12,0,0,0,1.82-4.09h7.31a15.87,15.87,0,0,1-4.84,9.37,14.08,14.08,0,0,1-10,3.61q-7.52,0-11.82-4.88t-4.3-13.43Q2645.67,743,2650.57,738Z"/><path d="M2689,769.6h-6.81V734.36H2689Z"/><path d="M2717.33,766.41q-3.3,4.07-10,4.07t-10-4.07a16.16,16.16,0,0,1,0-19.57q3.3-4.13,10-4.13t10,4.13a16.16,16.16,0,0,1,0,19.57Zm-5.45-3.76a12.16,12.16,0,0,0,0-12.07,6.05,6.05,0,0,0-9.19,0,12.09,12.09,0,0,0,0,12.07,6,6,0,0,0,9.19,0Z"/><path d="M2730.79,761.28a4.54,4.54,0,0,0,.94,2.58q1.27,1.36,4.71,1.36a7.2,7.2,0,0,0,3.21-.6,2,2,0,0,0,.23-3.54q-1-.6-7.13-2.06-4.44-1.1-6.26-2.75a6,6,0,0,1-1.82-4.68,8.12,8.12,0,0,1,2.84-6.2q2.84-2.59,8-2.59a14.69,14.69,0,0,1,8,1.95q3.08,1.95,3.53,6.73h-6.81a4,4,0,0,0-.74-2.08,4.69,4.69,0,0,0-3.83-1.39,5.52,5.52,0,0,0-3.18.69,2,2,0,0,0-.95,1.63,1.78,1.78,0,0,0,1,1.7,43.57,43.57,0,0,0,7.11,1.89,13.05,13.05,0,0,1,6.1,2.89,6.57,6.57,0,0,1,2,4.9,7.91,7.91,0,0,1-2.89,6.32q-2.89,2.45-8.92,2.45t-9.09-2.59a8.43,8.43,0,0,1-2.93-6.61Z"/><path d="M2759.74,740.43h-6.91v-6.29h6.91Zm-6.91,3.11h6.91V769.6h-6.91Z"/><path d="M2787.34,745q2.56,2.12,2.56,7V769.6h-7V753.75a7.28,7.28,0,0,0-.55-3.15,3.83,3.83,0,0,0-3.8-2,4.71,4.71,0,0,0-4.72,2.94,10.18,10.18,0,0,0-.66,4v14.1h-6.81v-26h6.6v3.8a11.54,11.54,0,0,1,2.47-2.89,8.58,8.58,0,0,1,5.31-1.58A10,10,0,0,1,2787.34,745Z"/><path d="M2809.12,743.52a8.18,8.18,0,0,1,4,3.78v-3.75h6.64v24.71q0,5-1.7,7.6-2.92,4.4-11.19,4.4a15.24,15.24,0,0,1-8.15-2,7.23,7.23,0,0,1-3.49-5.86h7.41a3.07,3.07,0,0,0,.93,1.72,5.76,5.76,0,0,0,3.71.93q3.68,0,4.92-2.46a12.48,12.48,0,0,0,.81-5.31v-1.67a8.3,8.3,0,0,1-2.1,2.51,8.46,8.46,0,0,1-5.28,1.55,10,10,0,0,1-8-3.53q-3-3.52-3-9.55a16.11,16.11,0,0,1,2.89-9.76,9.54,9.54,0,0,1,8.19-4A9,9,0,0,1,2809.12,743.52Zm2.32,18.68q1.64-1.8,1.64-5.75a8.82,8.82,0,0,0-1.56-5.64,5.09,5.09,0,0,0-4.18-1.94,4.92,4.92,0,0,0-4.93,3.37,12,12,0,0,0-.71,4.42,10.12,10.12,0,0,0,.76,4,5,5,0,0,0,5,3.3A5.23,5.23,0,0,0,2811.44,762.2Z"/><path d="M2840.79,754.87a17.26,17.26,0,0,1,5.16-4.5l.74-.45a14.64,14.64,0,0,1-2.37-3.52,8.73,8.73,0,0,1-.84-3.73,7.39,7.39,0,0,1,2.61-6,10.26,10.26,0,0,1,6.77-2.17,9.06,9.06,0,0,1,6.28,2.22,7.27,7.27,0,0,1,2.48,5.67,8.09,8.09,0,0,1-1.49,5.06,14.5,14.5,0,0,1-4.36,3.6l5.06,6.14a10.1,10.1,0,0,0,1.34-2.7,10.48,10.48,0,0,0,.5-3.08h6a19.32,19.32,0,0,1-1.55,6.5,18.43,18.43,0,0,1-2.48,4.08l6.4,7.64h-8.25l-2.45-3a15.4,15.4,0,0,1-3.33,2.45,13.7,13.7,0,0,1-6.35,1.42q-5.41,0-8.46-3.16a9.87,9.87,0,0,1-3-7A9.31,9.31,0,0,1,2840.79,754.87Zm6.66,8.44a5,5,0,0,0,3.71,1.46,7,7,0,0,0,3.22-.77,9.6,9.6,0,0,0,2.47-1.71l-6.59-8a11.94,11.94,0,0,0-3.42,3,5.15,5.15,0,0,0-.83,2.85A4.48,4.48,0,0,0,2847.45,763.31Zm3-18.87a29.77,29.77,0,0,0,1.93,2.47,12.88,12.88,0,0,0,2.13-1.7,4,4,0,0,0,1.24-2.8,2.92,2.92,0,0,0-.74-2,2.82,2.82,0,0,0-2.26-.86,3.3,3.3,0,0,0-1.76.5,2.54,2.54,0,0,0-1.24,2.35A3.67,3.67,0,0,0,2850.45,744.44Z"/><path d="M2912.93,745.36a6.9,6.9,0,0,0-4.09-5,10,10,0,0,0-4-.79,8.78,8.78,0,0,0-7,3.21q-2.74,3.21-2.74,9.65t3,9.18a9.74,9.74,0,0,0,6.74,2.7,8.74,8.74,0,0,0,6.07-2.13,9.18,9.18,0,0,0,2.92-5.57h-8.15v-5.88h14.68V769.6h-4.88l-.74-4.4a16.89,16.89,0,0,1-3.82,3.52,13.5,13.5,0,0,1-7.17,1.78,14.9,14.9,0,0,1-11.47-4.85q-4.66-4.87-4.66-13.33t4.71-13.71a16.05,16.05,0,0,1,12.45-5.16q6.72,0,10.79,3.41a12.67,12.67,0,0,1,4.67,8.5Z"/><path d="M2941.24,742.93l.59,0v7q-.64-.07-1.15-.1l-.81,0q-4.11,0-5.52,2.68a10.42,10.42,0,0,0-.79,4.64V769.6h-6.86V743.54h6.5v4.54a14.39,14.39,0,0,1,2.75-3.56,7.48,7.48,0,0,1,5-1.6Z"/><path d="M2967.54,766.41q-3.3,4.07-10,4.07t-10-4.07a16.16,16.16,0,0,1,0-19.57q3.3-4.13,10-4.13t10,4.13a16.16,16.16,0,0,1,0,19.57Zm-5.45-3.76a12.16,12.16,0,0,0,0-12.07,6.05,6.05,0,0,0-9.19,0,12.09,12.09,0,0,0,0,12.07,6,6,0,0,0,9.19,0Z"/><path d="M2982.51,743.54v15.7a8.26,8.26,0,0,0,.52,3.35,3.62,3.62,0,0,0,3.64,2,4.75,4.75,0,0,0,4.76-2.82,10.25,10.25,0,0,0,.67-4V743.54H2999V769.6h-6.62v-3.68q-.1.12-.48.72a4.78,4.78,0,0,1-.91,1.05,9.46,9.46,0,0,1-3.09,2,10.49,10.49,0,0,1-3.49.53q-5.77,0-7.77-4.16a16,16,0,0,1-1.12-6.76v-15.7Z"/><path d="M3027.53,746.34q3.19,3.37,3.19,9.9,0,6.88-3.12,10.49a10.11,10.11,0,0,1-8,3.61,8.41,8.41,0,0,1-5.2-1.55,10,10,0,0,1-2.21-2.51v13.58h-6.74V743.54H3012v3.85a11,11,0,0,1,2.36-2.68,8.7,8.7,0,0,1,5.44-1.75A10.3,10.3,0,0,1,3027.53,746.34Zm-5.23,4.9a4.85,4.85,0,0,0-4.5-2.32,5.12,5.12,0,0,0-5.14,3.51,13.19,13.19,0,0,0-.72,4.73q0,4.54,2.44,6.38a5.6,5.6,0,0,0,3.43,1.08,5,5,0,0,0,4.38-2.2,11.52,11.52,0,0,0,.12-11.19Z"/><path d="M3073.32,754.35q-3.09,2.58-8.84,2.58h-7.34V769.6h-7.31V734.36H3065a12.21,12.21,0,0,1,8.34,2.73q3.11,2.72,3.11,8.44Q3076.42,751.77,3073.32,754.35Zm-5.62-12.69a5.93,5.93,0,0,0-3.92-1.17h-6.63v10.37h6.63a5.63,5.63,0,0,0,3.92-1.27,5.17,5.17,0,0,0,1.4-4A4.85,4.85,0,0,0,3067.71,741.65Z"/><path d="M3100.5,743.69a7.65,7.65,0,0,1,3.22,2.56,6.82,6.82,0,0,1,1.31,3,37,37,0,0,1,.24,5V769.6h-7V753.73a7,7,0,0,0-.71-3.4,3.57,3.57,0,0,0-3.51-1.82,4.82,4.82,0,0,0-4.07,1.81,8.32,8.32,0,0,0-1.39,5.16V769.6h-6.81V734.48h6.81v12.43a8.33,8.33,0,0,1,3.42-3.17,9.61,9.61,0,0,1,4.08-.9A11,11,0,0,1,3100.5,743.69Z"/><path d="M3133.4,766.41q-3.3,4.07-10,4.07t-10-4.07a16.16,16.16,0,0,1,0-19.57q3.3-4.13,10-4.13t10,4.13a16.16,16.16,0,0,1,0,19.57Zm-5.45-3.76a12.16,12.16,0,0,0,0-12.07,6.05,6.05,0,0,0-9.19,0,12.09,12.09,0,0,0,0,12.07,6,6,0,0,0,9.19,0Z"/><path d="M3138.9,748.63v-4.85h3.63v-7.27h6.74v7.27h4.23v4.85h-4.23V762.4a3.09,3.09,0,0,0,.41,2,4.46,4.46,0,0,0,2.49.39h.66l.68,0v5.09l-3.23.12q-4.83.17-6.6-1.67a5,5,0,0,1-1.15-3.61v-16Z"/><path d="M3179.6,766.41q-3.3,4.07-10,4.07t-10-4.07a16.16,16.16,0,0,1,0-19.57q3.3-4.13,10-4.13t10,4.13a16.16,16.16,0,0,1,0,19.57Zm-5.45-3.76a12.16,12.16,0,0,0,0-12.07,6.05,6.05,0,0,0-9.19,0,12.09,12.09,0,0,0,0,12.07,6,6,0,0,0,9.19,0Z"/><line class="cls-3" x1="711.38" y1="566.07" x2="422.8" y2="686.09"/><line class="cls-4" x1="860.4" y1="566.07" x2="761.05" y2="686.09"/><line class="cls-5" x1="1158.45" y1="566.07" x2="1145.83" y2="686.09"/><line class="cls-4" x1="1456.49" y1="566.07" x2="1506.17" y2="686.09"/><line class="cls-4" x1="1754.54" y1="566.07" x2="1754.54" y2="686.09"/><line class="cls-5" x1="2326.2" y1="566.07" x2="2139.32" y2="686.09"/><line class="cls-4" x1="2698.35" y1="566.07" x2="2487.04" y2="686.09"/><line class="cls-4" x1="2797.69" y1="566.07" x2="2883.99" y2="686.09"/><line class="cls-6" x1="959.75" y1="566.07" x2="1357.14" y2="566.07"/><line class="cls-7" x1="1406.82" y1="566.07" x2="1506.17" y2="566.07"/><line class="cls-7" x1="1555.84" y1="566.07" x2="1953.24" y2="566.07"/><line class="cls-6" x1="2053.4" y1="566.07" x2="2599" y2="566.07"/><line class="cls-7" x1="2648.68" y1="566.07" x2="2748.02" y2="566.07"/><line class="cls-8" x1="2784.64" y1="566.07" x2="2810.74" y2="566.07"/><line class="cls-6" x1="698.76" y1="566.07" x2="723.99" y2="566.07"/><line class="cls-7" x1="847.35" y1="566.07" x2="873.45" y2="566.07"/></svg>